<svg id="Layer_1" data-name="Layer 1" xmlns="http://www.w3.org/2000/svg" viewBox="0 0 176 176"><defs><style>.cls-1{fill:none;stroke:#f3777e;stroke-miterlimit:10;stroke-width:3px;}.cls-2{fill:#f3777e;}.cls-3{fill:#231f20;}</style></defs><path class="cls-1" d="M107.19,30.16H49.27a2.53,2.53,0,0,0-1.88.83l-5.8,6.36a2.54,2.54,0,0,0-.67,1.72v99.2H137.2V59.69Z"/><polygon class="cls-2" points="104.87 44.47 121.54 60.87 104.87 60.87 104.87 44.47"/><polygon class="cls-2" points="125.37 126.44 52.75 126.44 52.75 41.98 57.98 41.98 98.11 41.98 98.11 67.63 125.37 67.63 125.37 126.44"/><path class="cls-3" d="M67.5,115.17a57.17,57.17,0,0,1,9.39-.65c4.27,0,7.36.83,9.42,2.49a8.92,8.92,0,0,1,3.26,7.11,9.71,9.71,0,0,1-2.81,7.29c-2.38,2.23-5.92,3.26-10,3.26a15.57,15.57,0,0,1-2.37-.16v11H67.5Zm6.9,14a10,10,0,0,0,2.31.19c3.69,0,6-1.87,6-5,0-2.83-1.94-4.52-5.44-4.52a13.29,13.29,0,0,0-2.84.24Z"/><path class="cls-3" d="M94,115.19a60.63,60.63,0,0,1,9.38-.67c5.84,0,9.65,1.08,12.6,3.31,3.19,2.38,5.2,6.13,5.2,11.57,0,5.9-2.13,10-5.09,12.46-3.23,2.7-8.19,4-14.19,4a58.19,58.19,0,0,1-7.9-.45Zm7,25.1a16.08,16.08,0,0,0,2.42.12c6.3.05,10.45-3.43,10.45-10.78,0-6.39-3.73-9.75-9.71-9.75a15.72,15.72,0,0,0-3.16.26Z"/><path class="cls-3" d="M125.79,114.76h18.79v5.7H132.75v7.05h11.06v5.65H132.75v12.36h-7Z"/></svg>