<svg id="Layer_1" data-name="Layer 1" xmlns="http://www.w3.org/2000/svg" viewBox="0 0 176 176"><defs><style>.cls-1{fill:#fff;stroke:#faa744;stroke-miterlimit:10;stroke-width:3px;}.cls-2{fill:#faa744;}.cls-3{fill:#231f20;}</style></defs><path class="cls-1" d="M99.12,30.41H41.21a2.57,2.57,0,0,0-1.89.83l-5.79,6.37a2.54,2.54,0,0,0-.67,1.72v99.2h96.28V59.94Z"/><polygon class="cls-2" points="96.81 44.73 113.48 61.13 96.81 61.13 96.81 44.73"/><polygon class="cls-2" points="117.31 126.7 44.69 126.7 44.69 42.24 49.92 42.24 90.05 42.24 90.05 67.88 117.31 67.88 117.31 126.7"/><path class="cls-3" d="M59.44,115.43a57.17,57.17,0,0,1,9.39-.65c4.27,0,7.35.83,9.42,2.48a8.94,8.94,0,0,1,3.26,7.12,9.7,9.7,0,0,1-2.81,7.28c-2.38,2.23-5.92,3.26-10,3.26a17.15,17.15,0,0,1-2.37-.15v11h-6.9Zm6.9,13.95a10.64,10.64,0,0,0,2.3.18c3.7,0,6-1.87,6-5,0-2.83-1.94-4.52-5.45-4.52a13.45,13.45,0,0,0-2.83.23Z"/><path class="cls-3" d="M86,145.78V115h8.1l6.39,11.28a89.47,89.47,0,0,1,5,10.55h.12A121.2,121.2,0,0,1,105,124v-9h6.38v30.76h-7.29l-6.59-11.85a112.8,112.8,0,0,1-5.34-10.86H92c.22,4.08.31,8.43.31,13.45v9.25Z"/><path class="cls-3" d="M143.14,144.36a34.3,34.3,0,0,1-10.27,1.73c-5.62,0-9.67-1.41-12.51-4.13a15.14,15.14,0,0,1-4.35-11.2c0-10.23,7.5-16,17.57-16a21.62,21.62,0,0,1,8.55,1.48l-1.45,5.57a17.14,17.14,0,0,0-7.16-1.3c-5.8,0-10.21,3.26-10.21,10,0,6.35,4,10.07,9.71,10.07a10.05,10.05,0,0,0,3.4-.43v-6.47h-4.76v-5.43h11.48Z"/></svg>