<svg id="Layer_1" data-name="Layer 1" xmlns="http://www.w3.org/2000/svg" xmlns:xlink="http://www.w3.org/1999/xlink" viewBox="0 0 176 176"><defs><style>.cls-1{fill:url(#linear-gradient);}.cls-2{fill:#231f20;stroke:#231f20;stroke-miterlimit:10;}</style><linearGradient id="linear-gradient" x1="29.37" y1="28.11" x2="140.72" y2="139.46" gradientUnits="userSpaceOnUse"><stop offset="0" stop-color="#fadf3d"/><stop offset="0.43" stop-color="#f8dd3d"/><stop offset="0.62" stop-color="#f1d63e"/><stop offset="0.77" stop-color="#e4c93e"/><stop offset="0.83" stop-color="#dbc03f"/><stop offset="0.84" stop-color="#ddc23f"/><stop offset="0.93" stop-color="#f2d73d"/><stop offset="0.98" stop-color="#fadf3d"/></linearGradient></defs><path class="cls-1" d="M142.39,137.76c-8.8,7.05-113,10.13-113,10.13V28.11H149.15S152.76,129.45,142.39,137.76Z"/><path class="cls-2" d="M68.34,77.81H65.62L55.15,62.07h-.06V77.81H52.58v-20h2.7L65.76,73.5h0V57.77h2.53Z"/><path class="cls-2" d="M81.51,57.42a9.06,9.06,0,0,1,6.89,2.86,10.62,10.62,0,0,1,2.68,7.54,10.42,10.42,0,0,1-2.7,7.49,9.74,9.74,0,0,1-13.85-.1A10.35,10.35,0,0,1,71.9,68a10.88,10.88,0,0,1,2.67-7.77A9.1,9.1,0,0,1,81.51,57.42Zm0,18.46a6.3,6.3,0,0,0,4.94-2.13,8.69,8.69,0,0,0,1.91-5.93,8.58,8.58,0,0,0-1.94-6,6.34,6.34,0,0,0-4.86-2.11,6.51,6.51,0,0,0-5,2.07c-1.29,1.37-1.94,3.49-1.94,6.33a8.26,8.26,0,0,0,1.9,5.64A6.31,6.31,0,0,0,81.48,75.88Z"/><path class="cls-2" d="M108.85,60.15h-6.63V77.81H99.55V60.15H93V57.77h15.87Z"/><path class="cls-2" d="M126.65,77.81h-15v-20h14.51v2.38H114.33v6.12h11.09v2.38H114.33v6.78h12.32Z"/></svg>