<svg id="Layer_1" data-name="Layer 1" xmlns="http://www.w3.org/2000/svg" viewBox="0 0 176 176"><defs><style>.cls-1{fill:#231f20;}.cls-2{fill:#fff;}.cls-3{fill:#479568;}.cls-4{fill:#54bd84;}</style></defs><rect class="cls-1" x="28.11" y="28.11" width="105.37" height="105.37" rx="8"/><path class="cls-2" d="M64.59,54.09h-6l-.6,1.5h.6a1.89,1.89,0,0,1,1.27.35,1.14,1.14,0,0,1,.37.89,1.16,1.16,0,0,1-.37.89,1.89,1.89,0,0,1-1.27.34H55.28A1.86,1.86,0,0,1,54,57.72a1.17,1.17,0,0,1-.38-.9,1.12,1.12,0,0,1,.4-.9,1.93,1.93,0,0,1,1.31-.33L59.21,46H57.6a1.88,1.88,0,0,1-1.27-.34,1.26,1.26,0,0,1,0-1.8,1.93,1.93,0,0,1,1.27-.34h5.33l4.9,12.11a2.24,2.24,0,0,1,1.15.2,1.21,1.21,0,0,1,.55,1,1.16,1.16,0,0,1-.37.89,1.86,1.86,0,0,1-1.27.34H64.57a1.85,1.85,0,0,1-1.26-.34,1.14,1.14,0,0,1-.38-.9,1.11,1.11,0,0,1,.38-.88,1.84,1.84,0,0,1,1.26-.35h.61Zm-1-2.46-2-4.89-2,4.89Z"/><path class="cls-2" d="M76.25,55.59V46h-.39a1.89,1.89,0,0,1-1.27-.34,1.28,1.28,0,0,1,0-1.8,2,2,0,0,1,1.27-.34h6.19a5.09,5.09,0,0,1,3.56,1.23A3.88,3.88,0,0,1,87,47.63a3.72,3.72,0,0,1-.31,1.52,4.17,4.17,0,0,1-1,1.31,5,5,0,0,1,1.75,1.63A3.87,3.87,0,0,1,88,54.2a3.67,3.67,0,0,1-.42,1.74,2.85,2.85,0,0,1-.77,1,5.11,5.11,0,0,1-1.5.82,6.75,6.75,0,0,1-2.23.32H75.86a1.89,1.89,0,0,1-1.27-.34,1.16,1.16,0,0,1-.37-.9,1.11,1.11,0,0,1,.38-.88,1.88,1.88,0,0,1,1.26-.35Zm2.46-6.06h2.71a3.87,3.87,0,0,0,2.42-.73,1.5,1.5,0,0,0,.65-1.23,1.42,1.42,0,0,0-.62-1.13A3.05,3.05,0,0,0,81.93,46H78.71Zm0,6.06H83a3.74,3.74,0,0,0,2.12-.44,1.12,1.12,0,0,0,.47-1,2,2,0,0,0-.93-1.47A4.26,4.26,0,0,0,82,52H78.71Z"/><path class="cls-2" d="M104.86,44.11a1.57,1.57,0,0,1,.5-.47,1.18,1.18,0,0,1,.58-.16,1.13,1.13,0,0,1,.88.38,1.82,1.82,0,0,1,.35,1.26v2.09a1.85,1.85,0,0,1-.35,1.27,1.13,1.13,0,0,1-.88.38,1.09,1.09,0,0,1-.79-.28,1.91,1.91,0,0,1-.45-1,1.41,1.41,0,0,0-.34-.78A3.37,3.37,0,0,0,103,45.9a5,5,0,0,0-1.78-.32,4.14,4.14,0,0,0-3.66,2,4.53,4.53,0,0,0-.71,2.57v1.6a3.86,3.86,0,0,0,1.29,3,5.07,5.07,0,0,0,3.59,1.2,6.33,6.33,0,0,0,2.32-.38,3.56,3.56,0,0,0,1.18-.85,3.19,3.19,0,0,1,.6-.5,1,1,0,0,1,.49-.11,1.26,1.26,0,0,1,1.24,1.25,1.75,1.75,0,0,1-.5,1.08,5,5,0,0,1-1.89,1.32,8.7,8.7,0,0,1-3.43.65,8.5,8.5,0,0,1-3.94-.9,6.57,6.57,0,0,1-3.42-5.68V50.17a7.44,7.44,0,0,1,.9-3.59A6.27,6.27,0,0,1,97.75,44a6.73,6.73,0,0,1,3.37-.9,7.56,7.56,0,0,1,2,.25A6.11,6.11,0,0,1,104.86,44.11Z"/><path class="cls-2" d="M56.06,85.15V75.51a1.73,1.73,0,0,1-1.16-.36,1.24,1.24,0,0,1,0-1.78A1.88,1.88,0,0,1,56.18,73h5.16a6.37,6.37,0,0,1,2.35.45,5.24,5.24,0,0,1,1.85,1.13,9,9,0,0,1,2,3.21A7.19,7.19,0,0,1,67.79,80v1.17A6.93,6.93,0,0,1,67.26,84a5.78,5.78,0,0,1-1.39,2,7.08,7.08,0,0,1-1.62,1.12,7.29,7.29,0,0,1-3.11.57h-5a1.93,1.93,0,0,1-1.27-.34,1.24,1.24,0,0,1,0-1.79A1.66,1.66,0,0,1,56.06,85.15Zm2.46,0h2.63a4.61,4.61,0,0,0,2.21-.42,3.9,3.9,0,0,0,1.47-1.4,4.4,4.4,0,0,0,.49-2.22V80a4.58,4.58,0,0,0-.44-2A4.48,4.48,0,0,0,63.31,76a4.3,4.3,0,0,0-2.19-.51h-2.6Z"/><path class="cls-2" d="M78.75,81.53v3.62H85V83.82a1.88,1.88,0,0,1,.34-1.27,1.17,1.17,0,0,1,.9-.38,1.13,1.13,0,0,1,.88.38,1.87,1.87,0,0,1,.35,1.27v3.8H75.9a1.93,1.93,0,0,1-1.27-.34,1.17,1.17,0,0,1-.38-.9,1.1,1.1,0,0,1,.39-.88,1.84,1.84,0,0,1,1.26-.35h.38V75.51H75.9a1.93,1.93,0,0,1-1.27-.34,1.26,1.26,0,0,1,0-1.8A1.88,1.88,0,0,1,75.9,73H87v3.75a1.9,1.9,0,0,1-.34,1.26,1.15,1.15,0,0,1-.89.38,1.16,1.16,0,0,1-.9-.37,1.86,1.86,0,0,1-.34-1.27V75.51H78.75v3.56h2.17a2.68,2.68,0,0,1,.18-1.24,1.17,1.17,0,0,1,1.05-.59,1.15,1.15,0,0,1,.89.38,1.86,1.86,0,0,1,.34,1.27v2.84a2.08,2.08,0,0,1-.19,1.08,1.19,1.19,0,0,1-1,.56,1.16,1.16,0,0,1-1.05-.59,2.7,2.7,0,0,1-.18-1.25Z"/><path class="cls-2" d="M99.3,81.54v3.61h2.53a1.89,1.89,0,0,1,1.27.35,1.13,1.13,0,0,1,.38.89,1.16,1.16,0,0,1-.38.89,2,2,0,0,1-1.27.34H96.45a1.93,1.93,0,0,1-1.27-.34,1.17,1.17,0,0,1-.38-.9,1.1,1.1,0,0,1,.39-.88,1.84,1.84,0,0,1,1.26-.35h.39V75.51h-.39a1.93,1.93,0,0,1-1.27-.34,1.26,1.26,0,0,1,0-1.8A1.88,1.88,0,0,1,96.45,73h11.61v3.77a1.83,1.83,0,0,1-.35,1.25,1.1,1.1,0,0,1-.89.38,1.16,1.16,0,0,1-.89-.37,1.9,1.9,0,0,1-.34-1.26v-1.3H99.3v3.57h2.17a2.71,2.71,0,0,1,.18-1.24,1.19,1.19,0,0,1,1-.59,1.15,1.15,0,0,1,.89.38,1.88,1.88,0,0,1,.34,1.27v2.84a1.89,1.89,0,0,1-.34,1.27,1.23,1.23,0,0,1-1.94-.21,2.78,2.78,0,0,1-.18-1.26Z"/><path class="cls-2" d="M64.27,111.14H59v3.57h.38a1.87,1.87,0,0,1,1.27.35A1.13,1.13,0,0,1,61,116a1.16,1.16,0,0,1-.38.89,1.93,1.93,0,0,1-1.27.34h-3a2,2,0,0,1-1.27-.34,1.17,1.17,0,0,1-.38-.9,1.19,1.19,0,0,1,.59-1,2.74,2.74,0,0,1,1.23-.18v-9.64a1.55,1.55,0,0,1-1-.4,1.14,1.14,0,0,1-.33-.84,1.17,1.17,0,0,1,.38-.9,1.86,1.86,0,0,1,1.27-.34h2.51a1.88,1.88,0,0,1,1.27.34,1.23,1.23,0,0,1,0,1.78,1.87,1.87,0,0,1-1.27.35H59v3.6h5.26v-3.6h-.38a1.87,1.87,0,0,1-1.27-.35,1.13,1.13,0,0,1-.38-.89,1.17,1.17,0,0,1,.38-.9,1.88,1.88,0,0,1,1.27-.34H66.4a1.86,1.86,0,0,1,1.27.34,1.23,1.23,0,0,1,0,1.73,1.55,1.55,0,0,1-1,.4v9.64a2.68,2.68,0,0,1,1.23.18,1.2,1.2,0,0,1,.59,1.06,1.16,1.16,0,0,1-.38.89,2,2,0,0,1-1.27.34h-3a1.93,1.93,0,0,1-1.27-.34,1.17,1.17,0,0,1-.38-.9,1.1,1.1,0,0,1,.39-.88,1.84,1.84,0,0,1,1.26-.35h.38Z"/><path class="cls-2" d="M82.52,105.07v9.64H85a1.85,1.85,0,0,1,1.27.35,1.1,1.1,0,0,1,.38.89,1.13,1.13,0,0,1-.38.89,1.91,1.91,0,0,1-1.27.34H77.56a1.93,1.93,0,0,1-1.27-.34,1.17,1.17,0,0,1-.38-.9,1.13,1.13,0,0,1,.38-.88,1.87,1.87,0,0,1,1.27-.35h2.49v-9.64H77.56a1.87,1.87,0,0,1-1.27-.35,1.13,1.13,0,0,1-.38-.89,1.17,1.17,0,0,1,.38-.9,1.88,1.88,0,0,1,1.27-.34H85a1.86,1.86,0,0,1,1.27.34,1.23,1.23,0,0,1,0,1.78,1.85,1.85,0,0,1-1.27.35Z"/><path class="cls-2" d="M107.2,112.67V116a14.54,14.54,0,0,1-2.84,1.23,9.32,9.32,0,0,1-2.53.33,10.4,10.4,0,0,1-3.5-.57,5.42,5.42,0,0,1-2-1.09,5.93,5.93,0,0,1-1.34-2,6.62,6.62,0,0,1-.62-2.89v-1.78a7,7,0,0,1,1.51-4.4,6.55,6.55,0,0,1,5.49-2.62,9.12,9.12,0,0,1,1.92.2,7.43,7.43,0,0,1,1.73.62,1.46,1.46,0,0,1,1-.45,1.17,1.17,0,0,1,.88.37,1.92,1.92,0,0,1,.33,1.27v1.6a1.89,1.89,0,0,1-.34,1.27,1.13,1.13,0,0,1-.88.37,1.11,1.11,0,0,1-.75-.26,1.5,1.5,0,0,1-.4-.8,2.08,2.08,0,0,0-.37-.84,2.93,2.93,0,0,0-1.15-.62,5.88,5.88,0,0,0-1.84-.27,5.07,5.07,0,0,0-2.55.61,4,4,0,0,0-1.42,1.55,4.6,4.6,0,0,0-.65,2.4V111a3.83,3.83,0,0,0,1.15,3,5.4,5.4,0,0,0,3.65,1,7.42,7.42,0,0,0,3.09-.63v-1.77h-2.52a2,2,0,0,1-1.27-.34,1.28,1.28,0,0,1,0-1.8,1.89,1.89,0,0,1,1.27-.34h4.38a1.93,1.93,0,0,1,1.27.34,1.13,1.13,0,0,1,.38.89,1.21,1.21,0,0,1-.26.76A1.57,1.57,0,0,1,107.2,112.67Z"/><polygon class="cls-3" points="147.89 122.87 104.56 97.85 104.56 147.89 147.89 122.87"/><polygon class="cls-4" points="145.89 121.87 102.56 96.85 102.56 146.89 145.89 121.87"/></svg>