<svg version="1.1" viewBox="0.0 0.0 960.0 540.0" fill="none" stroke="none" stroke-linecap="square" stroke-miterlimit="10" xmlns:xlink="http://www.w3.org/1999/xlink" xmlns="http://www.w3.org/2000/svg"><clipPath id="p.0"><path d="m0 0l960.0 0l0 540.0l-960.0 0l0 -540.0z" clip-rule="nonzero"/></clipPath><g clip-path="url(#p.0)"><path fill="#ffffff" d="m0 0l960.0 0l0 540.0l-960.0 0z" fill-rule="evenodd"/><path fill="#000000" fill-opacity="0.0" d="m384.61417 290.2467l0 0c0 -54.39351 42.70569 -98.488174 95.38583 -98.488174l0 0c25.297882 0 49.55963 10.376404 67.44794 28.846527c17.888367 18.470108 27.937866 43.52098 27.937866 69.64165l0 0c0 54.393555 -42.70569 98.48819 -95.3858 98.48819l0 0c-52.680145 0 -95.38583 -44.094635 -95.38583 -98.48819z" fill-rule="evenodd"/><path stroke="#595959" stroke-width="1.0" stroke-linejoin="round" stroke-linecap="butt" d="m384.61417 290.2467l0 0c0 -54.39351 42.70569 -98.488174 95.38583 -98.488174l0 0c25.297882 0 49.55963 10.376404 67.44794 28.846527c17.888367 18.470108 27.937866 43.52098 27.937866 69.64165l0 0c0 54.393555 -42.70569 98.48819 -95.3858 98.48819l0 0c-52.680145 0 -95.38583 -44.094635 -95.38583 -98.48819z" fill-rule="evenodd"/><path fill="#000000" fill-opacity="0.0" d="m384.61417 290.2467l0 0c0 -54.39351 42.70569 -98.488174 95.38583 -98.488174l0 0c25.297882 0 49.55963 10.376404 67.44794 28.846527c17.888367 18.470108 27.937866 43.52098 27.937866 69.64165l0 0c0 54.393555 -42.70569 98.48819 -95.3858 98.48819l0 0c-52.680145 0 -95.38583 -44.094635 -95.38583 -98.48819z" fill-rule="evenodd"/><path stroke="#595959" stroke-width="1.0" stroke-linejoin="round" stroke-linecap="butt" d="m384.61417 290.2467l0 0c0 -54.39351 42.70569 -98.488174 95.38583 -98.488174l0 0c25.297882 0 49.55963 10.376404 67.44794 28.846527c17.888367 18.470108 27.937866 43.52098 27.937866 69.64165l0 0c0 54.393555 -42.70569 98.48819 -95.3858 98.48819l0 0c-52.680145 0 -95.38583 -44.094635 -95.38583 -98.48819z" fill-rule="evenodd"/><path fill="#eeeeee" d="m477.52097 234.83081l0 0c26.367584 -13.201309 55.3024 -5.88208 69.97641 17.700897c14.674011 23.582977 11.260864 57.280365 -8.254395 81.49426c-19.515198 24.213867 -50.043884 32.63037 -73.83096 20.354584z" fill-rule="evenodd"/><path stroke="#595959" stroke-width="1.0" stroke-linejoin="round" stroke-linecap="butt" d="m477.52097 234.83081l0 0c26.367584 -13.201309 55.3024 -5.88208 69.97641 17.700897c14.674011 23.582977 11.260864 57.280365 -8.254395 81.49426c-19.515198 24.213867 -50.043884 32.63037 -73.83096 20.354584z" fill-rule="evenodd"/><path fill="#000000" fill-opacity="0.0" d="m474.55283 191.7598l0 -124.074974" fill-rule="evenodd"/><path stroke="#4285f4" stroke-width="3.0" stroke-linejoin="round" stroke-linecap="butt" d="m474.55283 191.7598l0 -124.074974" fill-rule="evenodd"/><path fill="#4285f4" d="m474.55176 67.68429l82.536865 29.08274l-82.536865 29.082733z" fill-rule="evenodd"/><path stroke="#4285f4" stroke-width="1.0" stroke-linejoin="round" stroke-linecap="butt" d="m474.55176 67.68429l82.536865 29.08274l-82.536865 29.082733z" fill-rule="evenodd"/><path fill="#000000" fill-opacity="0.0" d="m474.74356 141.3449l57.30484 -17.049965" fill-rule="evenodd"/><path stroke="#4285f4" stroke-width="4.0" stroke-linejoin="round" stroke-linecap="butt" d="m474.74356 141.3449l57.30484 -17.049965" fill-rule="evenodd"/><path fill="#000000" fill-opacity="0.0" d="m474.74356 164.25539l58.330963 -18.073746" fill-rule="evenodd"/><path stroke="#4285f4" stroke-width="4.0" stroke-linejoin="round" stroke-linecap="butt" d="m474.74356 164.25539l58.330963 -18.073746" fill-rule="evenodd"/><path fill="#000000" fill-opacity="0.0" d="m353.67715 133.02625l89.165375 0l0 74.3307l-89.165375 0z" fill-rule="evenodd"/><path fill="#000000" d="m364.55215 177.04625l4.1875 -0.359375q0.46875 3.0625 2.15625 4.609375q1.703125 1.53125 4.09375 1.53125q2.875 0 4.859375 -2.171875q2.0 -2.171875 2.0 -5.75q0 -3.40625 -1.921875 -5.375q-1.90625 -1.984375 -5.015625 -1.984375q-1.921875 0 -3.46875 0.875q-1.546875 0.875 -2.4375 2.28125l-3.734375 -0.5l3.140625 -16.65625l16.140625 0l0 3.796875l-12.953125 0l-1.75 8.71875q2.921875 -2.03125 6.125 -2.03125q4.25 0 7.171875 2.953125q2.921875 2.9375 2.921875 7.5625q0 4.40625 -2.5625 7.609375q-3.125 3.9375 -8.515625 3.9375q-4.4375 0 -7.234375 -2.46875q-2.796875 -2.484375 -3.203125 -6.578125zm25.474976 -19.703125l0 -3.828125l21.015625 0l0 3.109375q-3.109375 3.296875 -6.15625 8.765625q-3.03125 5.453125 -4.6875 11.234375q-1.203125 4.078125 -1.53125 8.921875l-4.09375 0q0.0625 -3.828125 1.5 -9.25q1.4375 -5.421875 4.125 -10.453125q2.6875 -5.046875 5.71875 -8.5l-15.890625 0z" fill-rule="nonzero"/><path fill="#000000" fill-opacity="0.0" d="m335.65353 343.6614l89.165375 0l0 74.33072l-89.165375 0z" fill-rule="evenodd"/><path fill="#000000" d="m346.52853 387.68143l4.1875 -0.359375q0.46875 3.0625 2.15625 4.609375q1.703125 1.53125 4.09375 1.53125q2.875 0 4.859375 -2.171875q2.0 -2.171875 2.0 -5.75q0 -3.40625 -1.921875 -5.375q-1.90625 -1.984375 -5.015625 -1.984375q-1.921875 0 -3.46875 0.875q-1.546875 0.875 -2.4375 2.28125l-3.734375 -0.5l3.140625 -16.65625l16.140625 0l0 3.796875l-12.953125 0l-1.75 8.71875q2.921875 -2.03125 6.125 -2.03125q4.25 0 7.171875 2.953125q2.921875 2.9375 2.921875 7.5625q0 4.40625 -2.5625 7.609375q-3.125 3.9375 -8.515625 3.9375q-4.4375 0 -7.234375 -2.46875q-2.796875 -2.484375 -3.203125 -6.578125zm25.474976 -19.703125l0 -3.828125l21.015625 0l0 3.109375q-3.109375 3.296875 -6.15625 8.765625q-3.03125 5.453125 -4.6875 11.234375q-1.203125 4.078125 -1.53125 8.921875l-4.09375 0q0.0625 -3.828125 1.5 -9.25q1.4375 -5.421875 4.125 -10.453125q2.6875 -5.046875 5.71875 -8.5l-15.890625 0z" fill-rule="nonzero"/><path fill="#000000" fill-opacity="0.0" d="m543.8688 141.76378l89.165344 0l0 74.3307l-89.165344 0z" fill-rule="evenodd"/><path fill="#000000" d="m554.7438 185.78378l4.1875 -0.359375q0.46875 3.0625 2.15625 4.609375q1.703125 1.53125 4.09375 1.53125q2.875 0 4.859375 -2.171875q2.0 -2.171875 2.0 -5.75q0 -3.40625 -1.921875 -5.375q-1.90625 -1.984375 -5.015625 -1.984375q-1.921875 0 -3.46875 0.875q-1.546875 0.875 -2.4375 2.28125l-3.734375 -0.5l3.140625 -16.65625l16.140625 0l0 3.796875l-12.953125 0l-1.75 8.71875q2.921875 -2.03125 6.125 -2.03125q4.25 0 7.171875 2.953125q2.921875 2.9375 2.921875 7.5625q0 4.40625 -2.5625 7.609375q-3.125 3.9375 -8.515625 3.9375q-4.4375 0 -7.234375 -2.46875q-2.796875 -2.484375 -3.203125 -6.578125zm25.474976 -19.703125l0 -3.828125l21.015625 0l0 3.109375q-3.109375 3.296875 -6.15625 8.765625q-3.03125 5.453125 -4.6875 11.234375q-1.203125 4.078125 -1.53125 8.921875l-4.09375 0q0.0625 -3.828125 1.5 -9.25q1.4375 -5.421875 4.125 -10.453125q2.6875 -5.046875 5.71875 -8.5l-15.890625 0z" fill-rule="nonzero"/><path fill="#ff0000" d="m320.33334 245.26509l0 0c0 -6.853546 5.5558777 -12.409454 12.409424 -12.409454l0 0c3.2911987 0 6.4476013 1.3074341 8.774811 3.6346436c2.32724 2.3272247 3.6346436 5.4836273 3.6346436 8.774811l0 0c0 6.853546 -5.5558777 12.409439 -12.409454 12.409439l0 0c-6.853546 0 -12.409424 -5.555893 -12.409424 -12.409439z" fill-rule="evenodd"/><path stroke="#ff0000" stroke-width="1.0" stroke-linejoin="round" stroke-linecap="butt" d="m320.33334 245.26509l0 0c0 -6.853546 5.5558777 -12.409454 12.409424 -12.409454l0 0c3.2911987 0 6.4476013 1.3074341 8.774811 3.6346436c2.32724 2.3272247 3.6346436 5.4836273 3.6346436 8.774811l0 0c0 6.853546 -5.5558777 12.409439 -12.409454 12.409439l0 0c-6.853546 0 -12.409424 -5.555893 -12.409424 -12.409439z" fill-rule="evenodd"/><path fill="#ff0000" d="m335.65353 275.5092l0 0c0 -6.853546 5.555908 -12.409454 12.409454 -12.409454l0 0c3.2911987 0 6.4476013 1.3074341 8.774811 3.6346436c2.3272095 2.32724 3.6346436 5.483612 3.6346436 8.774811l0 0c0 6.853546 -5.555908 12.409454 -12.409454 12.409454l0 0c-6.853546 0 -12.409454 -5.555908 -12.409454 -12.409454z" fill-rule="evenodd"/><path stroke="#ff0000" stroke-width="1.0" stroke-linejoin="round" stroke-linecap="butt" d="m335.65353 275.5092l0 0c0 -6.853546 5.555908 -12.409454 12.409454 -12.409454l0 0c3.2911987 0 6.4476013 1.3074341 8.774811 3.6346436c2.3272095 2.32724 3.6346436 5.483612 3.6346436 8.774811l0 0c0 6.853546 -5.555908 12.409454 -12.409454 12.409454l0 0c-6.853546 0 -12.409454 -5.555908 -12.409454 -12.409454z" fill-rule="evenodd"/><path fill="#ff0000" d="m305.8058 275.5092l0 0c0 -6.853546 5.5558777 -12.409454 12.409424 -12.409454l0 0c3.2911987 0 6.4476013 1.3074341 8.774811 3.6346436c2.32724 2.32724 3.6346436 5.483612 3.6346436 8.774811l0 0c0 6.853546 -5.5558777 12.409454 -12.409454 12.409454l0 0c-6.853546 0 -12.409424 -5.555908 -12.409424 -12.409454z" fill-rule="evenodd"/><path stroke="#ff0000" stroke-width="1.0" stroke-linejoin="round" stroke-linecap="butt" d="m305.8058 275.5092l0 0c0 -6.853546 5.5558777 -12.409454 12.409424 -12.409454l0 0c3.2911987 0 6.4476013 1.3074341 8.774811 3.6346436c2.32724 2.32724 3.6346436 5.483612 3.6346436 8.774811l0 0c0 6.853546 -5.5558777 12.409454 -12.409454 12.409454l0 0c-6.853546 0 -12.409424 -5.555908 -12.409424 -12.409454z" fill-rule="evenodd"/><path fill="#000000" fill-opacity="0.0" d="m578.9711 253.08136l89.165344 0l0 74.33072l-89.165344 0z" fill-rule="evenodd"/><path fill="#000000" d="m610.518 281.10135l-3.953125 0.3125q-0.53125 -2.34375 -1.5 -3.40625q-1.625 -1.703125 -3.984375 -1.703125q-1.90625 0 -3.34375 1.0625q-1.890625 1.359375 -2.984375 4.0q-1.078125 2.625 -1.109375 7.5q1.4375 -2.1875 3.515625 -3.25q2.078125 -1.0625 4.359375 -1.0625q3.984375 0 6.78125 2.9375q2.796875 2.921875 2.796875 7.578125q0 3.046875 -1.3125 5.671875q-1.3125 2.625 -3.625 4.015625q-2.296875 1.390625 -5.21875 1.390625q-4.984375 0 -8.125 -3.65625q-3.140625 -3.65625 -3.140625 -12.078125q0 -9.40625 3.46875 -13.671875q3.046875 -3.71875 8.171875 -3.71875q3.828125 0 6.265625 2.15625q2.453125 2.140625 2.9375 5.921875zm-16.265625 13.984375q0 2.0625 0.875 3.953125q0.875 1.875 2.4375 2.859375q1.578125 0.984375 3.3125 0.984375q2.515625 0 4.328125 -2.03125q1.828125 -2.046875 1.828125 -5.546875q0 -3.359375 -1.796875 -5.296875q-1.796875 -1.9375 -4.515625 -1.9375q-2.703125 0 -4.59375 1.9375q-1.875 1.9375 -1.875 5.078125z" fill-rule="nonzero"/><path fill="#000000" fill-opacity="0.0" d="m623.53284 270.88452l24.818848 46.519684" fill-rule="evenodd"/><path stroke="#9900ff" stroke-width="3.0" stroke-linejoin="round" stroke-linecap="butt" d="m623.53284 270.88452l24.818848 46.519684" fill-rule="evenodd"/><path fill="#000000" fill-opacity="0.0" d="m648.3517 316.44095l51.181152 0.78738403" fill-rule="evenodd"/><path stroke="#9900ff" stroke-width="3.0" stroke-linejoin="round" stroke-linecap="butt" d="m648.3517 316.44095l51.181152 0.78738403" fill-rule="evenodd"/></g></svg>