<svg id="Layer_1" data-name="Layer 1" xmlns="http://www.w3.org/2000/svg" viewBox="0 0 176 176"><defs><style>.cls-1{fill:#fff;}.cls-1,.cls-3{stroke:#4fb3e6;stroke-miterlimit:10;stroke-width:3px;}.cls-2{fill:#4fb3e6;}.cls-3{fill:none;}</style></defs><path class="cls-1" d="M137.85,27.3H34.07a8,8,0,0,0-8,8v84.1a8,8,0,0,0,8,8H137.85a8,8,0,0,0,8-8V35.3A8,8,0,0,0,137.85,27.3Zm-.48,100.43h0Z"/><path class="cls-2" d="M84.68,50h2.57c.13,0,.27,0,.4,0a46,46,0,0,1,7.4.85A46.76,46.76,0,0,1,108,55.43a48,48,0,0,1,17.27,15.41,49.68,49.68,0,0,1,8.84,27.49,47.78,47.78,0,0,1-.41,7.56,49.85,49.85,0,0,1-1.32,6.63,49.07,49.07,0,0,1-9.7,18.77,47.64,47.64,0,0,1-19.76,14.27,47.19,47.19,0,0,1-23.62,2.65,47,47,0,0,1-23-10,47.9,47.9,0,0,1-5.88-5.6,48.91,48.91,0,0,1-7.6-11.39,49.4,49.4,0,0,1-4.13-12.64,48,48,0,0,1-.76-6.33c0-.53-.07-1.06-.1-1.59V97.92c0-.15,0-.3,0-.45a50.17,50.17,0,0,1,6.05-22.21A49,49,0,0,1,58.56,58.72a47.14,47.14,0,0,1,18.23-7.87,46.41,46.41,0,0,1,6.33-.8ZM82.79,97.27a68.36,68.36,0,0,1-21.06,4.39s0,.07,0,.09l.21,1a61.92,61.92,0,0,0,5.94,16.18.29.29,0,0,0,.34.19c.63-.07,1.27-.12,1.9-.18a72.18,72.18,0,0,0,7.6-1.14A76.45,76.45,0,0,0,90,114.27l.52-.21Zm11.9,15,.28-.12c1.41-.72,2.83-1.41,4.21-2.17a64.58,64.58,0,0,0,12.1-8.59.36.36,0,0,0,.13-.43,68.85,68.85,0,0,0-6.93-16.46l-.25-.4A66.38,66.38,0,0,1,87,95.49Zm4.18,20.19c-2.17-4.74-4.32-9.46-6.49-14.19a81.83,81.83,0,0,1-21.75,5.26c.07.11.11.19.16.26,1,1.35,2,2.74,3,4.06A47.21,47.21,0,0,0,83,136.4a.6.6,0,0,0,.44.13c1.22-.18,2.45-.35,3.67-.58a61.12,61.12,0,0,0,10.51-3Zm2.82-52.27A54,54,0,0,0,90.46,68.41a48.79,48.79,0,0,1-5.56,4.81,47.5,47.5,0,0,1-6.27,3.89l6.49,14.2A61.29,61.29,0,0,0,101.69,80.17Zm13.5,17.33a.94.94,0,0,1,.13-.14,55.51,55.51,0,0,0,10.3-16.09.58.58,0,0,0,0-.43A44.59,44.59,0,0,0,117,67.9c-.06-.07-.1-.16-.18-.28l-.41.78a57.65,57.65,0,0,1-8.57,12.1.35.35,0,0,0-.06.51,70.87,70.87,0,0,1,6.86,14.68C114.79,96.27,115,96.86,115.19,97.5ZM62.88,119.3c0-.08-.06-.15-.09-.21a66.12,66.12,0,0,1-3.91-9.88,67.83,67.83,0,0,1-1.81-7.31c0-.15-.08-.21-.24-.22a61.3,61.3,0,0,1-13.26-1.86l-1.14-.29v.27a47.94,47.94,0,0,0,.53,6.55,46,46,0,0,0,3.11,10.91.46.46,0,0,0,.38.32c1.09.21,2.18.48,3.29.65,2,.29,3.92.57,5.89.78,1.54.16,3.09.22,4.64.28C61.13,119.33,62,119.3,62.88,119.3ZM60.77,81.7a63.49,63.49,0,0,0-.37,6.43,67.11,67.11,0,0,0,.51,8.74c0,.17.08.23.26.22l2-.13a58,58,0,0,0,6.42-.79,63.73,63.73,0,0,0,10.85-2.94l.41-.16L74.44,79A38.82,38.82,0,0,1,60.77,81.7Zm42.28,48.83.19-.08a57.91,57.91,0,0,0,10.52-6.78.49.49,0,0,0,.16-.3c0-.49,0-1,.06-1.47a63.33,63.33,0,0,0-.31-8.82c-.19-1.78-.48-3.56-.73-5.34-.07-.48-.18-1-.28-1.49A72.14,72.14,0,0,1,96.6,116.44Zm24.87-43.19h-.06l-.1.19a60.68,60.68,0,0,1-11,14.94.38.38,0,0,0-.12.42c.58,2.49,1,5,1.35,7.54a75.57,75.57,0,0,1,.61,8.51c0,.08,0,.16,0,.25l.08,0a1.59,1.59,0,0,1,.15-.21,50,50,0,0,0,10.3-15.72,3.53,3.53,0,0,0,.27-1.27c0-1.48.08-3,0-4.44a41.44,41.44,0,0,0-1-7.93C128.3,88.89,128.11,88.12,127.92,87.34Zm-23-10.53.14-.15a52.52,52.52,0,0,0,8-11.87c.18-.36.18-.36-.13-.61A43.26,43.26,0,0,0,100.24,57l-1.35-.46A42.89,42.89,0,0,1,93.54,65,58.33,58.33,0,0,1,104.93,76.81ZM76.34,137l-.22-.21A54.52,54.52,0,0,1,70,130.35a57.2,57.2,0,0,1-4.42-6.28.36.36,0,0,0-.39-.2q-.37,0-.75,0a76.37,76.37,0,0,1-8.82-.28c-1.72-.18-3.44-.41-5.16-.62-.5-.06-1-.16-1.54-.24l.26.43a44.26,44.26,0,0,0,9.4,10.88,2.16,2.16,0,0,0,.68.38,52.39,52.39,0,0,0,8.58,2A56.21,56.21,0,0,0,75,137Zm-20-40a70.61,70.61,0,0,1-.13-15.65,32.43,32.43,0,0,1-9-2.51c-.05.1-.09.17-.12.24a43.74,43.74,0,0,0-3.74,11.06c-.27,1.42-.45,2.85-.67,4.27,0,.16-.06.32.19.39a51.65,51.65,0,0,0,7.28,1.6c1.54.21,3.09.36,4.63.52C55.28,97,55.78,97,56.31,97.07Zm30.3-31.31A44.84,44.84,0,0,0,70.67,59.7l6,13.23A42.58,42.58,0,0,0,86.61,65.76Zm-20-4a56.85,56.85,0,0,0-5.13,15.33,33.91,33.91,0,0,0,11.09-2.28Zm27.78-6.37a41.27,41.27,0,0,0-6.41-.79,41.71,41.71,0,0,0-6.42.18A38.49,38.49,0,0,0,75.23,56a50.66,50.66,0,0,1,14.55,6.37A39,39,0,0,0,94.35,55.39Zm-33.3,7.23A44,44,0,0,0,49.47,74.89a27.59,27.59,0,0,0,7.35,2A63.82,63.82,0,0,1,61.05,62.62Zm39.73,74a67.18,67.18,0,0,1-11.5,3.56,1.5,1.5,0,0,0,.17.11,44.09,44.09,0,0,0,6.39,2.55.59.59,0,0,0,.35,0,42.21,42.21,0,0,0,5.49-1.75l1-.4Zm12.48-6.83a65.22,65.22,0,0,1-8.3,4.93l1.81,3.94.26-.14a43.46,43.46,0,0,0,4.91-3.25.77.77,0,0,0,.34-.52l.81-3.88C113.16,130.54,113.2,130.2,113.26,129.8ZM71.37,141.51a41.86,41.86,0,0,0,15.28,2.57.33.33,0,0,0-.13-.11c-1.46-.85-2.92-1.71-4.39-2.55a.79.79,0,0,0-.41-.08c-1.62.09-3.25.24-4.87.26C75,141.63,73.19,141.55,71.37,141.51Zm53.69-22.57-.15.18a55.1,55.1,0,0,1-6.31,6.47.82.82,0,0,0-.28.58c-.07.74-.15,1.47-.23,2.21,0,.43-.11.86-.16,1.29A41.46,41.46,0,0,0,125.06,118.94Z"/><line class="cls-3" x1="26.07" y1="40.52" x2="145.85" y2="40.52"/></svg>