<svg id="Layer_1" data-name="Layer 1" xmlns="http://www.w3.org/2000/svg" xmlns:xlink="http://www.w3.org/1999/xlink" viewBox="0 0 176 176"><defs><style>.cls-1,.cls-2{fill:none;}.cls-2{stroke:#54bd84;stroke-miterlimit:10;stroke-width:3px;}.cls-3{clip-path:url(#clip-path);}.cls-4{fill:#fff;}.cls-5{fill:#4d8260;}.cls-6{fill:#91cd96;}.cls-7{fill:#35835d;}</style><clipPath id="clip-path"><rect class="cls-1" x="28.13" y="45.28" width="63.14" height="188.59"/></clipPath></defs><rect class="cls-2" x="26.11" y="29.86" width="119.78" height="119.78" rx="8"/><g class="cls-3"><path class="cls-4" d="M77,79c-.06.13-.08.19-.11.24Q72,87.72,67.06,96.2c-.19.33-.14.42.21.51a36.27,36.27,0,0,1,4,1.26A23,23,0,0,1,79,102.56a13.64,13.64,0,0,1,4.08,13.85,17.33,17.33,0,0,1-9.12,11.52,25.17,25.17,0,0,1-14.82,2.64,20.16,20.16,0,0,1-9-3,18.66,18.66,0,0,1-8.83-12.87c0-.24-.13-.33-.37-.33q-2.33,0-4.65,0c-.24,0-.31.07-.28.32a21.68,21.68,0,0,0,2.07,7.09,24.25,24.25,0,0,0,11.75,11.45,28.31,28.31,0,0,0,13.82,2.54,33.32,33.32,0,0,0,6.45-.92,24.6,24.6,0,0,0,14.09-9.08,21.07,21.07,0,0,0,4.25-16.67,17.23,17.23,0,0,0-5.88-10.28A27.39,27.39,0,0,0,74.9,94.1c-.4-.17-.46-.3-.23-.69q5.55-9.59,11.08-19.17c.25-.42.24-.43-.23-.43H51.84c-.35,0-.43.1-.43.43,0,1.41,0,2.83,0,4.24,0,.43.09.55.53.55H77Z"/><path class="cls-5" d="M62.18,50.86a5.8,5.8,0,0,0,1.44.18,28.83,28.83,0,0,1,12.29,3.81,23.65,23.65,0,0,1,9.19,10.5c.27.58.5,1.18.77,1.77.11.25.06.32-.21.32h-5c-.28,0-.35-.2-.45-.37a29.6,29.6,0,0,0-4.14-5.39A18.53,18.53,0,0,0,66,56.46a32.71,32.71,0,0,0-7.9-.54,20.1,20.1,0,0,0-12.87,5.49,16.66,16.66,0,0,0-5.29,9.67c-.61,3.88-.1,7.56,2.46,10.73a16.66,16.66,0,0,0,6.48,4.6,47.16,47.16,0,0,0,8,2.36l10,2.42c.38.09.45.18.24.53-.73,1.23-1.44,2.47-2.14,3.71-.11.19-.19.32-.48.25-4.22-1-8.46-1.92-12.68-3a28.65,28.65,0,0,1-10.21-4.48,16.48,16.48,0,0,1-7-12.54,20.82,20.82,0,0,1,6.29-17,26.2,26.2,0,0,1,14.06-7.49c.75-.14,1.52-.21,2.28-.31.08,0,.18,0,.23-.09Z"/><path class="cls-6" d="M77,79h-25c-.44,0-.54-.12-.53-.55,0-1.41,0-2.83,0-4.24,0-.33.08-.43.43-.43H85.52c.47,0,.48,0,.23.43q-5.53,9.58-11.08,19.17c-.23.39-.17.52.23.69a27.39,27.39,0,0,1,7.67,4.67,17.23,17.23,0,0,1,5.88,10.28,21.07,21.07,0,0,1-4.25,16.67,24.6,24.6,0,0,1-14.09,9.08,33.32,33.32,0,0,1-6.45.92,28.31,28.31,0,0,1-13.82-2.54,24.25,24.25,0,0,1-11.75-11.45A21.68,21.68,0,0,1,36,114.64c0-.25,0-.32.28-.32q2.33,0,4.65,0c.24,0,.33.09.37.33a18.66,18.66,0,0,0,8.83,12.87,20.16,20.16,0,0,0,9,3,25.17,25.17,0,0,0,14.82-2.64,17.33,17.33,0,0,0,9.12-11.52A13.64,13.64,0,0,0,79,102.56,23,23,0,0,0,71.22,98a36.27,36.27,0,0,0-4-1.26c-.35-.09-.4-.18-.21-.51q4.92-8.48,9.8-16.94C76.89,79.21,76.91,79.15,77,79Z"/></g><path class="cls-7" d="M95.5,100.72l-.25-1.36h-.09A4.91,4.91,0,0,1,91.25,101a4.18,4.18,0,0,1-4.43-4.19c0-3.57,3.19-5.26,8-5.26v-.17c0-.73-.39-1.77-2.51-1.77a7.85,7.85,0,0,0-3.78,1l-.78-2.73a11,11,0,0,1,5.32-1.23c4.57,0,6,2.7,6,5.91V97.4a19.66,19.66,0,0,0,.22,3.32ZM95,94.24c-2.25,0-4,.53-4,2.16A1.53,1.53,0,0,0,92.7,98a2.33,2.33,0,0,0,2.21-1.57,2.92,2.92,0,0,0,.08-.73Z"/><path class="cls-7" d="M102.49,91.62c0-1.8-.06-3.32-.12-4.6h3.71l.19,1.92h.06a5.3,5.3,0,0,1,4.56-2.23c3,0,5.7,2.61,5.7,7,0,5-3.18,7.34-6.23,7.34a4.25,4.25,0,0,1-3.56-1.56h0v6.8h-4.26Zm4.26,3.24a4.21,4.21,0,0,0,.08.89,2.59,2.59,0,0,0,2.49,2c1.84,0,2.94-1.56,2.94-3.88s-1-3.84-2.87-3.84a2.68,2.68,0,0,0-2.55,2.15,3.16,3.16,0,0,0-.09.76Z"/><path class="cls-7" d="M119.23,91.62c0-1.8,0-3.32-.11-4.6h3.7l.2,1.92h0a5.31,5.31,0,0,1,4.57-2.23c3,0,5.69,2.61,5.69,7,0,5-3.18,7.34-6.23,7.34a4.22,4.22,0,0,1-3.55-1.56h-.06v6.8h-4.26Zm4.26,3.24a4.19,4.19,0,0,0,.09.89,2.57,2.57,0,0,0,2.49,2c1.84,0,2.94-1.56,2.94-3.88s-1-3.84-2.88-3.84a2.67,2.67,0,0,0-2.54,2.15,2.73,2.73,0,0,0-.1.76Z"/><line class="cls-2" x1="26.11" y1="43.07" x2="145.89" y2="43.07"/></svg>