<svg viewBox="0 0 155 155" xmlns="http://www.w3.org/2000/svg" xmlns:xlink="http://www.w3.org/1999/xlink"><clipPath id="a"><path d="m28.13 45.28h63.14v188.59h-63.14z"/></clipPath><rect fill="none" height="119.78" rx="8" stroke="#54bd84" stroke-miterlimit="10" stroke-width="3" width="119.78" x="26.11" y="29.86"/><g clip-path="url(#a)"><path d="m77 79c-.06.13-.08.19-.11.24q-4.89 8.48-9.83 16.96c-.19.33-.14.42.21.51a36.27 36.27 0 0 1 4 1.26 23 23 0 0 1 7.73 4.59 13.64 13.64 0 0 1 4.08 13.85 17.33 17.33 0 0 1 -9.12 11.52 25.17 25.17 0 0 1 -14.82 2.64 20.16 20.16 0 0 1 -9-3 18.66 18.66 0 0 1 -8.83-12.87c0-.24-.13-.33-.37-.33q-2.33 0-4.65 0c-.24 0-.31.07-.28.32a21.68 21.68 0 0 0 2.07 7.09 24.25 24.25 0 0 0 11.75 11.45 28.31 28.31 0 0 0 13.82 2.54 33.32 33.32 0 0 0 6.45-.92 24.6 24.6 0 0 0 14.09-9.08 21.07 21.07 0 0 0 4.25-16.67 17.23 17.23 0 0 0 -5.88-10.28 27.39 27.39 0 0 0 -7.66-4.72c-.4-.17-.46-.3-.23-.69q5.55-9.59 11.08-19.17c.25-.42.24-.43-.23-.43h-33.68c-.35 0-.43.1-.43.43v4.24c0 .43.09.55.53.55h25.06z" fill="#fff"/><path d="m62.18 50.86a5.8 5.8 0 0 0 1.44.18 28.83 28.83 0 0 1 12.29 3.81 23.65 23.65 0 0 1 9.19 10.5c.27.58.5 1.18.77 1.77.11.25.06.32-.21.32h-5c-.28 0-.35-.2-.45-.37a29.6 29.6 0 0 0 -4.14-5.39 18.53 18.53 0 0 0 -10.07-5.22 32.71 32.71 0 0 0 -7.9-.54 20.1 20.1 0 0 0 -12.87 5.49 16.66 16.66 0 0 0 -5.29 9.67c-.61 3.88-.1 7.56 2.46 10.73a16.66 16.66 0 0 0 6.48 4.6 47.16 47.16 0 0 0 8 2.36l10 2.42c.38.09.45.18.24.53-.73 1.23-1.44 2.47-2.14 3.71-.11.19-.19.32-.48.25-4.22-1-8.46-1.92-12.68-3a28.65 28.65 0 0 1 -10.21-4.48 16.48 16.48 0 0 1 -7-12.54 20.82 20.82 0 0 1 6.29-17 26.2 26.2 0 0 1 14.06-7.49c.75-.14 1.52-.21 2.28-.31.08 0 .18 0 .23-.09z" fill="#4d8260"/><path d="m77 79h-25c-.44 0-.54-.12-.53-.55 0-1.41 0-2.83 0-4.24 0-.33.08-.43.43-.43h33.62c.47 0 .48 0 .23.43q-5.53 9.58-11.08 19.17c-.23.39-.17.52.23.69a27.39 27.39 0 0 1 7.67 4.67 17.23 17.23 0 0 1 5.88 10.28 21.07 21.07 0 0 1 -4.25 16.67 24.6 24.6 0 0 1 -14.09 9.08 33.32 33.32 0 0 1 -6.45.92 28.31 28.31 0 0 1 -13.82-2.54 24.25 24.25 0 0 1 -11.75-11.45 21.68 21.68 0 0 1 -2.09-7.06c0-.25 0-.32.28-.32q2.33 0 4.65 0c.24 0 .33.09.37.33a18.66 18.66 0 0 0 8.83 12.87 20.16 20.16 0 0 0 9 3 25.17 25.17 0 0 0 14.82-2.64 17.33 17.33 0 0 0 9.12-11.52 13.64 13.64 0 0 0 -4.07-13.8 23 23 0 0 0 -7.78-4.56 36.27 36.27 0 0 0 -4-1.26c-.35-.09-.4-.18-.21-.51q4.92-8.48 9.8-16.94c.08-.08.1-.14.19-.29z" fill="#91cd96"/></g><g fill="#35835d"><path d="m95.5 100.72-.25-1.36h-.09a4.91 4.91 0 0 1 -3.91 1.64 4.18 4.18 0 0 1 -4.43-4.19c0-3.57 3.19-5.26 8-5.26v-.17c0-.73-.39-1.77-2.51-1.77a7.85 7.85 0 0 0 -3.78 1l-.78-2.73a11 11 0 0 1 5.32-1.23c4.57 0 6 2.7 6 5.91v4.84a19.66 19.66 0 0 0 .22 3.32zm-.5-6.48c-2.25 0-4 .53-4 2.16a1.53 1.53 0 0 0 1.7 1.6 2.33 2.33 0 0 0 2.21-1.57 2.92 2.92 0 0 0 .08-.73z"/><path d="m102.49 91.62c0-1.8-.06-3.32-.12-4.6h3.71l.19 1.92h.06a5.3 5.3 0 0 1 4.56-2.23c3 0 5.7 2.61 5.7 7 0 5-3.18 7.34-6.23 7.34a4.25 4.25 0 0 1 -3.56-1.56v6.8h-4.26zm4.26 3.24a4.21 4.21 0 0 0 .08.89 2.59 2.59 0 0 0 2.49 2c1.84 0 2.94-1.56 2.94-3.88s-1-3.84-2.87-3.84a2.68 2.68 0 0 0 -2.55 2.15 3.16 3.16 0 0 0 -.09.76z"/><path d="m119.23 91.62c0-1.8 0-3.32-.11-4.6h3.7l.2 1.92a5.31 5.31 0 0 1 4.57-2.23c3 0 5.69 2.61 5.69 7 0 5-3.18 7.34-6.23 7.34a4.22 4.22 0 0 1 -3.55-1.56h-.06v6.8h-4.26zm4.26 3.24a4.19 4.19 0 0 0 .09.89 2.57 2.57 0 0 0 2.49 2c1.84 0 2.94-1.56 2.94-3.88s-1-3.84-2.88-3.84a2.67 2.67 0 0 0 -2.54 2.15 2.73 2.73 0 0 0 -.1.76z"/></g><path d="m26.11 43.07h119.78" fill="none" stroke="#54bd84" stroke-miterlimit="10" stroke-width="3"/></svg>
