<?xml version="1.0" encoding="utf-8"?>
<!-- Generator: Adobe Illustrator 15.0.0, SVG Export Plug-In . SVG Version: 6.00 Build 0)  -->
<!DOCTYPE svg PUBLIC "-//W3C//DTD SVG 1.1//EN" "http://www.w3.org/Graphics/SVG/1.1/DTD/svg11.dtd">
<svg version="1.1" id="Layer_1" xmlns="http://www.w3.org/2000/svg" xmlns:xlink="http://www.w3.org/1999/xlink" x="0px" y="0px"
	 width="1585.58px" height="726.252px" viewBox="0 0 1585.58 726.252" enable-background="new 0 0 1585.58 726.252"
	 xml:space="preserve">
<path fill="#FFFFFF" d="M461.954,383.552c2.677,0.874,5.35,1.759,8.017,2.634c5.802,1.904,11.699,3.507,17.357,5.829
	c0.112,0.046,0.225,0.089,0.338,0.131c36.866,15.089,55.561,38.457,55.561,69.458c0,32.928-28.663,85.168-105.576,85.168
	c-13.657,0-26.685-2.241-38.745-6.67c-7.915-2.885-15.424-6.747-22.315-11.478c-21.495-14.772-35.728-36.97-39.05-60.898
	c-0.652-4.696-4.668-8.193-9.41-8.193h-27.855c-2.677,0-5.23,1.13-7.031,3.111c-1.801,1.981-2.682,4.631-2.426,7.296
	c3.031,31.598,19.144,62.548,44.206,84.915c27.506,24.548,62.994,37.523,102.625,37.523c58.835,0,94.678-23.647,114.386-43.485
	c24.167-24.326,38.027-56.818,38.027-89.146c0-26.028-7.939-48.824-23.596-67.754c-11.854-14.332-28.215-26.486-48.73-36.219
	l56.259-97.453c1.697-2.939,1.697-6.561,0-9.5c-1.697-2.939-4.833-4.75-8.227-4.75H382.108c-5.247,0-9.5,4.253-9.5,9.5v27.46
	c0,5.247,4.253,9.5,9.5,9.5H501.76l-27.926,48.345c0,0-1.381-0.448-2.958-0.917c-0.589-0.175-1.367-0.354-1.97-0.525
	c-3.459-0.983-7.067-1.936-10.769-2.841l-59.361-14.217c-2.389-0.582-4.823-1.223-7.43-1.955
	c-6.073-1.715-11.805-3.675-17.037-5.825c-39.887-16.396-45.002-40.854-45.002-60.33c0-45.997,43.743-84.856,95.521-84.856
	c1.249,0,2.465,0.021,3.718,0.064c43.612,1.488,72.406,10.98,99.626,56.792c1.712,2.881,4.815,4.647,8.167,4.647
	c0,0,29.431,0,29.451,0c5.247,0,9.5-4.253,9.5-9.5c0-1.439-0.32-2.804-0.893-4.027c-24.276-62.054-74.771-93.514-150.095-93.514
	c-34.92,0-70.466,13.678-97.523,37.527c-28.573,25.185-44.308,58.165-44.308,92.867c0,52.598,28.697,88.587,85.298,106.969
	c6.446,2.089,13.33,3.977,20.459,5.611c6.491,1.487,12.993,2.938,19.475,4.465c12.6,2.971,25.249,5.748,37.726,9.208
	c3.542,0.981,7.07,2.016,10.576,3.119C457.99,382.266,459.973,382.905,461.954,383.552z"/>
<path fill="#FFFFFF" d="M647.389,394.091l7.485-7.272c4.838,5.705,10.683,10.441,17.518,14.206
	c6.841,3.786,15.027,5.668,24.577,5.668c10.968,0,20.011-2.525,27.138-7.587c7.122-5.054,10.688-12.567,10.688-22.542
	c0-7.122-1.752-12.818-5.238-17.098c-3.497-4.27-8.013-7.617-13.57-10.041s-11.328-4.418-17.307-5.984
	c-5.417-1.566-10.797-3.235-16.138-5.025c-5.342-1.771-10.189-4.056-14.533-6.833c-4.344-2.779-7.832-6.479-10.47-11.113
	c-2.638-4.632-3.953-10.432-3.953-17.414c0-6.554,1.743-12.575,5.239-18.057c3.487-5.481,8.549-9.863,15.168-13.145
	c6.628-3.272,14.565-4.913,23.827-4.913c8.12,0,14.959,1.068,20.519,3.207c5.552,2.135,10.144,4.698,13.779,7.69
	c3.636,2.993,6.445,5.91,8.441,8.763l-7.267,6.195c-1.706-2.28-4.059-4.667-7.047-7.155c-2.992-2.494-6.806-4.67-11.435-6.521
	c-4.633-1.85-10.437-2.778-17.418-2.778c-7.832,0-14.208,1.319-19.126,3.958c-4.916,2.633-8.515,6.012-10.79,10.143
	c-2.279,4.139-3.422,8.483-3.422,13.033c0,6.843,1.996,12.156,5.985,15.923c3.99,3.775,9.079,6.731,15.279,8.866
	c6.2,2.144,12.501,4.065,18.915,5.77c4.983,1.287,9.938,2.927,14.851,4.922c4.914,1.995,9.397,4.559,13.462,7.691
	c4.055,3.132,7.298,7.123,9.723,11.961c2.419,4.847,3.63,10.833,3.63,17.955c0,8.26-2.177,15.354-6.521,21.265
	c-4.343,5.91-10.216,10.469-17.629,13.676c-7.404,3.207-15.67,4.801-24.783,4.801c-11.969,0-22.191-2.312-30.666-6.944
	C657.829,404.735,651.521,399.637,647.389,394.091"/>
<path fill="#FFFFFF" d="M758.94,412.893l58.335-142.531h10.259l58.335,142.531h-11.751l-18.593-45.95h-67.098l-18.381,45.95H758.94z
	 M792.272,357.332h59.407l-29.702-73.937L792.272,357.332z"/>
<path fill="#FFFFFF" d="M1008.313,394.509v-39.527h-38.034v-9.62h48.289v53.427c-4.842,4.269-11.682,8.259-20.508,11.961
	c-8.84,3.71-20.23,5.556-34.195,5.556c-13.675,0-25.716-3.169-36.11-9.509c-10.399-6.331-18.523-15.13-24.364-26.392
	c-5.84-11.252-8.763-24.21-8.763-38.884c0-10.404,1.677-20.127,5.025-29.169c3.345-9.043,8.082-16.953,14.206-23.721
	c6.125-6.763,13.429-12.073,21.908-15.918c8.474-3.85,17.843-5.771,28.098-5.771c8.404,0,15.672,1.104,21.8,3.31
	c6.12,2.209,11.22,4.917,15.274,8.12c4.065,3.206,7.272,6.273,9.622,9.192c2.35,2.918,3.952,5.094,4.806,6.517l-7.695,5.341
	c-0.849-1.137-2.279-2.918-4.271-5.341c-1.995-2.424-4.734-4.984-8.231-7.691c-3.486-2.704-7.729-5.025-12.712-6.945
	c-4.992-1.921-10.826-2.886-17.52-2.886c-12.396,0-23.009,2.886-31.843,8.656c-8.832,5.771-15.601,13.537-20.303,23.288
	c-4.7,9.76-7.053,20.77-7.053,33.02c0,12.11,2.353,23.111,7.053,33.01c4.702,9.91,11.396,17.741,20.094,23.503
	c8.681,5.78,19.009,8.659,30.979,8.659c10.969,0,19.979-1.211,27.035-3.636C997.953,400.643,1003.755,397.789,1008.313,394.509"/>
<polygon fill="#FFFFFF" points="1054.255,412.893 1054.255,270.362 1139.732,270.362 1139.732,279.974 1064.515,279.974 
	1064.515,333.83 1123.279,333.83 1123.279,343.441 1064.515,343.441 1064.515,403.272 1145.289,403.272 1145.289,412.893 "/>
<path fill="#FFFFFF" d="M1167.561,401.585l6.777-8.586c2.115,1.51,4.67,3.319,7.69,5.425c3.012,2.107,6.852,3.953,11.523,5.537
	c4.671,1.587,10.478,2.378,17.404,2.378c11.607,0,20.724-3.132,27.353-9.388c6.627-6.246,9.946-14.646,9.946-25.198
	c0-11.448-3.206-19.662-9.602-24.639c-6.414-4.969-14.282-7.458-23.624-7.458c-3.617,0-6.601,0.261-8.932,0.792
	c-2.339,0.531-4.78,1.166-7.345,1.92l-4.297-7.458l45.885-54.471h-62.609v-9.948h76.397v9.718l-44.301,50.859
	c1.202-0.298,2.489-0.531,3.841-0.68c1.36-0.15,2.563-0.224,3.617-0.224c12.212,0,22.262,3.617,30.177,10.842
	c7.915,7.234,11.867,17.489,11.867,30.745c0,10.097-2.228,18.421-6.665,24.975c-4.447,6.554-10.405,11.494-17.861,14.805
	c-7.46,3.318-15.709,4.978-24.752,4.978c-8.139,0-14.952-0.941-20.452-2.823c-5.501-1.885-10.022-4-13.566-6.331
	C1172.492,405.016,1169.667,403.096,1167.561,401.585"/>
<rect x="646.353" y="436.813" fill="#FFFFFF" width="612.32" height="2.005"/>
<g>
	<path fill="#FFFFFF" d="M686.555,499.228c-0.769,1.156-1.691,2.242-2.782,3.272c-1.085,1.025-2.345,1.93-3.771,2.703
		c-1.431,0.784-3.011,1.399-4.736,1.854c-1.728,0.457-3.613,0.682-5.664,0.682c-3.412,0-6.562-0.597-9.466-1.79
		c-2.904-1.192-5.389-2.843-7.486-4.959c-2.088-2.107-3.72-4.614-4.89-7.515c-1.175-2.899-1.762-6.078-1.762-9.527
		c0-3.459,0.596-6.638,1.794-9.537c1.193-2.898,2.843-5.407,4.955-7.514c2.117-2.111,4.604-3.766,7.485-4.959
		c2.881-1.194,5.999-1.79,9.369-1.79c1.669,0,3.296,0.172,4.899,0.522c1.599,0.345,3.099,0.829,4.507,1.459
		c1.408,0.629,2.685,1.384,3.841,2.261c1.146,0.885,2.112,1.877,2.876,2.987l-3.837,2.81c-0.471-0.718-1.101-1.444-1.888-2.171
		c-0.792-0.723-1.715-1.365-2.787-1.921c-1.062-0.549-2.224-1.003-3.481-1.343c-1.264-0.34-2.616-0.513-4.065-0.513
		c-2.945,0-5.58,0.532-7.9,1.595c-2.327,1.062-4.299,2.499-5.916,4.303c-1.622,1.809-2.857,3.901-3.71,6.283
		s-1.282,4.89-1.282,7.527c0,2.629,0.441,5.142,1.309,7.518c0.877,2.383,2.127,4.477,3.748,6.284
		c1.623,1.805,3.589,3.24,5.915,4.302c2.326,1.062,4.937,1.595,7.836,1.595c2.601,0,5.076-0.532,7.421-1.599
		c2.345-1.066,4.307-2.773,5.882-5.123L686.555,499.228z"/>
	<path fill="#FFFFFF" d="M724.81,491.621c0,2.26-0.395,4.349-1.184,6.265c-0.787,1.92-1.887,3.584-3.291,4.992
		c-1.408,1.408-3.095,2.508-5.053,3.294c-1.967,0.794-4.119,1.185-6.464,1.185c-2.307,0-4.438-0.391-6.396-1.185
		c-1.966-0.786-3.645-1.886-5.057-3.294c-1.408-1.408-2.503-3.072-3.291-4.992c-0.789-1.916-1.186-4.005-1.186-6.265
		c0-2.261,0.396-4.35,1.186-6.27c0.787-1.916,1.882-3.585,3.291-4.992c1.412-1.403,3.091-2.498,5.057-3.291
		c1.957-0.792,4.088-1.184,6.396-1.184c2.345,0,4.498,0.392,6.464,1.184c1.958,0.793,3.646,1.888,5.053,3.291
		c1.403,1.407,2.503,3.076,3.291,4.992C724.415,487.271,724.81,489.36,724.81,491.621z M720.2,491.621
		c0-1.659-0.265-3.231-0.796-4.703c-0.532-1.47-1.287-2.745-2.275-3.837c-0.98-1.091-2.172-1.952-3.58-2.592
		c-1.404-0.638-2.984-0.96-4.731-0.96c-1.753,0-3.314,0.322-4.7,0.96c-1.387,0.64-2.567,1.501-3.556,2.592
		c-0.978,1.092-1.734,2.367-2.265,3.837c-0.532,1.472-0.801,3.044-0.801,4.703c0,1.664,0.269,3.229,0.801,4.703
		c0.53,1.468,1.287,2.75,2.265,3.836c0.988,1.086,2.168,1.938,3.556,2.56c1.385,0.618,2.947,0.927,4.7,0.927
		c1.748,0,3.328-0.309,4.731-0.927c1.408-0.621,2.6-1.474,3.58-2.56c0.988-1.086,1.743-2.368,2.275-3.836
		C719.935,494.851,720.2,493.285,720.2,491.621z"/>
	<path fill="#FFFFFF" d="M740.221,506.587h-4.349v-48.358h4.349V506.587z"/>
	<path fill="#FFFFFF" d="M757.938,506.587h-4.349v-48.358h4.349V506.587z"/>
	<path fill="#FFFFFF" d="M790.049,487.212c0-2.579-0.68-4.503-2.042-5.781c-1.371-1.268-3.346-1.901-5.952-1.901
		c-1.79,0-3.455,0.322-4.983,0.96c-1.538,0.64-2.838,1.492-3.906,2.56l-2.432-2.876c1.234-1.24,2.871-2.261,4.897-3.072
		c2.02-0.812,4.313-1.216,6.872-1.216c1.621,0,3.136,0.223,4.544,0.671c1.407,0.447,2.643,1.119,3.715,2.015
		c1.057,0.895,1.887,2.026,2.485,3.393c0.6,1.361,0.899,2.964,0.899,4.791v13.117c0,1.151,0.037,2.35,0.131,3.58
		c0.083,1.239,0.213,2.283,0.382,3.136h-3.897c-0.131-0.722-0.238-1.515-0.326-2.362c-0.089-0.857-0.131-1.688-0.131-2.499h-0.125
		c-1.365,2.005-2.908,3.44-4.638,4.321c-1.724,0.871-3.803,1.31-6.236,1.31c-1.153,0-2.331-0.158-3.551-0.485
		c-1.213-0.315-2.318-0.838-3.325-1.565c-1.001-0.728-1.831-1.669-2.497-2.824c-0.662-1.157-0.988-2.572-0.988-4.242
		c0-2.308,0.585-4.135,1.757-5.48c1.173-1.353,2.746-2.354,4.698-3.021c1.967-0.662,4.219-1.092,6.749-1.286
		c2.541-0.188,5.175-0.291,7.902-0.291V487.212z M788.771,491.621c-1.79,0-3.592,0.075-5.407,0.223
		c-1.808,0.15-3.455,0.448-4.922,0.896c-1.467,0.446-2.679,1.1-3.612,1.948c-0.941,0.857-1.406,1.985-1.406,3.393
		c0,1.066,0.199,1.963,0.61,2.685c0.399,0.728,0.946,1.315,1.626,1.764c0.68,0.445,1.44,0.763,2.275,0.959
		c0.826,0.191,1.668,0.284,2.522,0.284c1.533,0,2.899-0.266,4.097-0.798c1.193-0.53,2.196-1.258,3.007-2.172
		c0.811-0.923,1.42-1.976,1.851-3.17c0.429-1.192,0.639-2.451,0.639-3.775v-2.236H788.771z"/>
	<path fill="#FFFFFF" d="M811.42,501.535v5.052h-4.349v-48.358h4.349v23.604h0.131c1.277-1.957,2.94-3.439,4.992-4.441
		c2.046-1.003,4.152-1.506,6.326-1.506c2.344,0,4.47,0.404,6.367,1.216c1.891,0.812,3.518,1.922,4.859,3.328
		c1.345,1.403,2.389,3.067,3.14,4.987c0.739,1.917,1.117,3.986,1.117,6.205s-0.378,4.288-1.117,6.203
		c-0.751,1.922-1.795,3.584-3.14,4.992c-1.342,1.408-2.969,2.518-4.859,3.329c-1.897,0.806-4.023,1.211-6.367,1.211
		c-2.174,0-4.28-0.494-6.326-1.472c-2.052-0.98-3.715-2.434-4.992-4.35H811.42z M833.747,491.621c0-1.659-0.261-3.231-0.769-4.703
		c-0.514-1.47-1.25-2.745-2.205-3.837c-0.955-1.091-2.144-1.952-3.552-2.592c-1.412-0.638-3.006-0.96-4.796-0.96
		c-1.665,0-3.198,0.307-4.606,0.932c-1.407,0.616-2.624,1.465-3.646,2.555c-1.023,1.091-1.826,2.368-2.4,3.841
		c-0.576,1.469-0.856,3.058-0.856,4.765c0,1.705,0.28,3.29,0.856,4.764c0.574,1.473,1.377,2.74,2.4,3.804
		c1.021,1.072,2.238,1.91,3.646,2.531c1.408,0.618,2.941,0.927,4.606,0.927c1.79,0,3.384-0.309,4.796-0.927
		c1.408-0.621,2.597-1.474,3.552-2.56s1.691-2.368,2.205-3.836C833.486,494.851,833.747,493.285,833.747,491.621z"/>
	<path fill="#FFFFFF" d="M879.031,491.621c0,2.26-0.396,4.349-1.185,6.265c-0.788,1.92-1.888,3.584-3.291,4.992
		c-1.408,1.408-3.095,2.508-5.052,3.294c-1.962,0.794-4.12,1.185-6.461,1.185c-2.302,0-4.443-0.391-6.4-1.185
		c-1.966-0.786-3.649-1.886-5.057-3.294c-1.403-1.408-2.508-3.072-3.291-4.992c-0.788-1.916-1.18-4.005-1.18-6.265
		c0-2.261,0.392-4.35,1.18-6.27c0.783-1.916,1.888-3.585,3.291-4.992c1.407-1.403,3.091-2.498,5.057-3.291
		c1.957-0.792,4.099-1.184,6.4-1.184c2.341,0,4.499,0.392,6.461,1.184c1.957,0.793,3.644,1.888,5.052,3.291
		c1.403,1.407,2.503,3.076,3.291,4.992C878.635,487.271,879.031,489.36,879.031,491.621z M874.426,491.621
		c0-1.659-0.265-3.231-0.797-4.703c-0.537-1.47-1.291-2.745-2.27-3.837c-0.99-1.091-2.178-1.952-3.586-2.592
		c-1.411-0.638-2.986-0.96-4.73-0.96c-1.753,0-3.318,0.322-4.708,0.96c-1.379,0.64-2.567,1.501-3.547,2.592
		c-0.983,1.092-1.739,2.367-2.27,3.837c-0.536,1.472-0.797,3.044-0.797,4.703c0,1.664,0.261,3.229,0.797,4.703
		c0.53,1.468,1.286,2.75,2.27,3.836c0.979,1.086,2.168,1.938,3.547,2.56c1.39,0.618,2.955,0.927,4.708,0.927
		c1.744,0,3.319-0.309,4.73-0.927c1.408-0.621,2.596-1.474,3.586-2.56c0.979-1.086,1.732-2.368,2.27-3.836
		C874.161,494.851,874.426,493.285,874.426,491.621z"/>
	<path fill="#FFFFFF" d="M889.905,480.107c-0.037-1.282-0.103-2.433-0.187-3.458h4.153c0.088,0.811,0.154,1.705,0.196,2.693
		c0.042,0.975,0.064,1.786,0.064,2.424h0.127c0.848-1.743,2.134-3.165,3.835-4.251c1.706-1.091,3.622-1.631,5.761-1.631
		c0.551,0,1.055,0.022,1.503,0.064c0.441,0.047,0.903,0.127,1.375,0.252l-0.573,4.158c-0.262-0.084-0.688-0.168-1.283-0.252
		s-1.192-0.13-1.79-0.13c-1.155,0-2.261,0.214-3.327,0.643c-1.066,0.42-1.996,1.091-2.778,2.005
		c-0.798,0.919-1.435,2.088-1.926,3.514c-0.494,1.427-0.736,3.133-0.736,5.137v15.312h-4.349V483.24
		C889.971,482.428,889.947,481.384,889.905,480.107z"/>
	<path fill="#FFFFFF" d="M932.7,487.212c0-2.579-0.686-4.503-2.046-5.781c-1.367-1.268-3.348-1.901-5.951-1.901
		c-1.792,0-3.455,0.322-4.984,0.96c-1.538,0.64-2.838,1.492-3.906,2.56l-2.434-2.876c1.235-1.24,2.871-2.261,4.899-3.072
		c2.019-0.812,4.316-1.216,6.87-1.216c1.627,0,3.139,0.223,4.547,0.671c1.405,0.447,2.643,1.119,3.714,2.015
		c1.058,0.895,1.888,2.026,2.489,3.393c0.597,1.361,0.895,2.964,0.895,4.791v13.117c0,1.151,0.041,2.35,0.13,3.58
		c0.084,1.239,0.215,2.283,0.382,3.136h-3.896c-0.131-0.722-0.238-1.515-0.325-2.362c-0.089-0.857-0.128-1.688-0.128-2.499h-0.125
		c-1.371,2.005-2.915,3.44-4.644,4.321c-1.724,0.871-3.804,1.31-6.236,1.31c-1.151,0-2.331-0.158-3.548-0.485
		c-1.217-0.315-2.32-0.838-3.327-1.565c-1.003-0.728-1.833-1.669-2.494-2.824c-0.666-1.157-0.992-2.572-0.992-4.242
		c0-2.308,0.587-4.135,1.762-5.48c1.17-1.353,2.74-2.354,4.694-3.021c1.967-0.662,4.218-1.092,6.749-1.286
		c2.545-0.188,5.174-0.291,7.905-0.291V487.212z M931.419,491.621c-1.79,0-3.595,0.075-5.403,0.223
		c-1.812,0.15-3.448,0.448-4.926,0.896c-1.47,0.446-2.676,1.1-3.612,1.948c-0.942,0.857-1.404,1.985-1.404,3.393
		c0,1.066,0.197,1.963,0.606,2.685c0.4,0.728,0.945,1.315,1.628,1.764c0.68,0.445,1.439,0.763,2.272,0.959
		c0.826,0.191,1.67,0.284,2.522,0.284c1.534,0,2.903-0.266,4.097-0.798c1.194-0.53,2.201-1.258,3.007-2.172
		c0.812-0.923,1.422-1.976,1.851-3.17c0.429-1.192,0.644-2.451,0.644-3.775v-2.236H931.419z"/>
	<path fill="#FFFFFF" d="M962.447,480.295h-8.445v17.471c0,1.107,0.107,2.021,0.321,2.749c0.21,0.722,0.518,1.286,0.927,1.691
		c0.402,0.405,0.888,0.687,1.441,0.834c0.55,0.15,1.146,0.225,1.785,0.225c0.596,0,1.23-0.089,1.893-0.262
		c0.652-0.167,1.282-0.4,1.883-0.698l0.195,3.775c-0.772,0.298-1.57,0.518-2.398,0.67c-0.831,0.15-1.74,0.224-2.719,0.224
		c-0.811,0-1.669-0.111-2.562-0.325c-0.893-0.204-1.721-0.615-2.495-1.212c-0.769-0.596-1.397-1.408-1.887-2.434
		c-0.485-1.017-0.732-2.363-0.732-4.027v-18.681h-6.204v-3.646h6.204v-8.441h4.349v8.441h8.445V480.295z"/>
	<path fill="#FFFFFF" d="M998.078,490.727c0,0.298,0,0.619,0,0.955c0,0.346-0.028,0.703-0.07,1.09h-24.811
		c0.041,1.492,0.335,2.903,0.891,4.223c0.549,1.32,1.322,2.477,2.308,3.455c0.974,0.979,2.128,1.757,3.448,2.334
		c1.319,0.574,2.754,0.863,4.289,0.863c2.261,0,4.208-0.521,5.854-1.565c1.642-1.044,2.887-2.252,3.744-3.617l3.258,2.559
		c-1.791,2.261-3.762,3.882-5.916,4.862c-2.158,0.978-4.466,1.472-6.939,1.472c-2.224,0-4.275-0.391-6.176-1.185
		c-1.897-0.786-3.529-1.886-4.891-3.294c-1.365-1.408-2.447-3.072-3.23-4.992c-0.788-1.916-1.184-4.005-1.184-6.265
		c0-2.261,0.377-4.35,1.151-6.27c0.765-1.916,1.828-3.585,3.198-4.992c1.361-1.403,2.963-2.498,4.795-3.291
		c1.837-0.792,3.817-1.184,5.953-1.184c2.35,0,4.409,0.392,6.205,1.184c1.783,0.793,3.28,1.855,4.478,3.198
		c1.189,1.342,2.099,2.907,2.714,4.697C997.766,486.754,998.078,488.675,998.078,490.727z M993.664,489.318
		c-0.13-2.815-1.033-5.146-2.723-7.002c-1.683-1.855-4.082-2.787-7.191-2.787c-1.454,0-2.797,0.27-4.032,0.802
		c-1.239,0.531-2.325,1.259-3.259,2.172c-0.94,0.924-1.686,1.963-2.242,3.133c-0.553,1.175-0.875,2.4-0.959,3.683H993.664z"/>
	<path fill="#FFFFFF" d="M1048.801,468.59c-0.988-1.356-2.241-2.457-3.779-3.291c-1.528-0.835-3.393-1.25-5.565-1.25
		c-1.109,0-2.237,0.173-3.385,0.514c-1.161,0.339-2.199,0.861-3.132,1.57c-0.947,0.7-1.701,1.585-2.275,2.648
		c-0.573,1.071-0.862,2.331-0.862,3.775c0,1.454,0.275,2.647,0.83,3.584c0.545,0.938,1.286,1.739,2.201,2.4
		c0.908,0.662,1.948,1.203,3.122,1.632c1.166,0.424,2.392,0.854,3.674,1.277c1.57,0.513,3.155,1.062,4.744,1.664
		c1.6,0.592,3.035,1.374,4.316,2.334c1.269,0.956,2.308,2.173,3.123,3.646c0.808,1.468,1.207,3.337,1.207,5.594
		c0,2.265-0.429,4.217-1.29,5.854c-0.868,1.642-1.981,2.998-3.366,4.064c-1.37,1.063-2.945,1.855-4.713,2.367
		c-1.766,0.515-3.551,0.766-5.346,0.766c-1.361,0-2.727-0.135-4.097-0.415c-1.356-0.274-2.661-0.695-3.897-1.244
		c-1.23-0.56-2.386-1.264-3.449-2.116c-1.067-0.85-2.014-1.827-2.815-2.941l3.962-2.941c0.983,1.622,2.355,2.974,4.13,4.065
		c1.767,1.081,3.845,1.626,6.231,1.626c1.151,0,2.326-0.177,3.524-0.545c1.193-0.36,2.271-0.914,3.227-1.66
		c0.96-0.746,1.747-1.663,2.367-2.75c0.62-1.091,0.923-2.357,0.923-3.808c0-1.581-0.303-2.886-0.923-3.93
		c-0.62-1.049-1.44-1.92-2.466-2.628c-1.021-0.7-2.19-1.288-3.519-1.759c-1.32-0.471-2.708-0.937-4.153-1.407
		c-1.487-0.471-2.965-1.002-4.41-1.599c-1.459-0.597-2.755-1.371-3.902-2.335c-1.154-0.955-2.082-2.139-2.786-3.547
		s-1.053-3.138-1.053-5.185c0-2.177,0.438-4.055,1.304-5.63c0.877-1.576,2.023-2.876,3.427-3.897
		c1.408-1.024,2.964-1.771,4.672-2.236c1.705-0.477,3.387-0.709,5.056-0.709c3.068,0,5.692,0.54,7.863,1.631
		c2.178,1.086,3.814,2.378,4.928,3.868L1048.801,468.59z"/>
	<path fill="#FFFFFF" d="M1072.499,477.516c1.767-1.091,3.738-1.631,5.916-1.631c0.81,0,1.655,0.088,2.526,0.256
		c0.871,0.173,1.729,0.499,2.559,0.993c0.834,0.488,1.599,1.137,2.304,1.948c0.703,0.812,1.309,1.855,1.821,3.132
		c1.03-2.041,2.42-3.612,4.189-4.698c1.768-1.091,3.874-1.631,6.304-1.631c3.793,0,6.638,1.128,8.539,3.393
		c1.901,2.257,2.849,5.24,2.849,8.95v18.359h-4.352v-16.569c0-3.151-0.585-5.687-1.761-7.607c-1.169-1.921-3.17-2.881-5.985-2.881
		c-1.575,0-2.907,0.322-3.989,0.96c-1.091,0.64-1.968,1.482-2.629,2.526c-0.662,1.044-1.137,2.228-1.436,3.553
		c-0.304,1.324-0.447,2.684-0.447,4.092v15.927h-4.349v-17.46c0-1.45-0.107-2.773-0.322-3.966c-0.22-1.194-0.587-2.21-1.119-3.04
		s-1.268-1.473-2.209-1.921c-0.938-0.446-2.131-0.671-3.58-0.671c-1.025,0-2.055,0.233-3.104,0.699
		c-1.044,0.476-1.977,1.188-2.815,2.154c-0.83,0.951-1.498,2.172-2.01,3.64c-0.518,1.469-0.769,3.212-0.769,5.215v15.35h-4.354
		V483.24c0-0.812-0.022-1.856-0.064-3.133c-0.042-1.282-0.108-2.433-0.19-3.458h4.157c0.089,0.811,0.153,1.705,0.191,2.693
		c0.046,0.975,0.064,1.786,0.064,2.424h0.131C1069.418,480.023,1070.728,478.602,1072.499,477.516z"/>
	<path fill="#FFFFFF" d="M1141.225,487.212c0-2.579-0.681-4.503-2.037-5.781c-1.365-1.268-3.352-1.901-5.952-1.901
		c-1.79,0-3.454,0.322-4.988,0.96c-1.538,0.64-2.839,1.492-3.906,2.56l-2.423-2.876c1.23-1.24,2.865-2.261,4.89-3.072
		c2.021-0.812,4.315-1.216,6.874-1.216c1.621,0,3.135,0.223,4.546,0.671c1.403,0.447,2.643,1.119,3.71,2.015
		c1.062,0.895,1.896,2.026,2.484,3.393c0.601,1.361,0.904,2.964,0.904,4.791v13.117c0,1.151,0.041,2.35,0.13,3.58
		c0.08,1.239,0.211,2.283,0.378,3.136h-3.896c-0.131-0.722-0.238-1.515-0.317-2.362c-0.088-0.857-0.129-1.688-0.129-2.499h-0.131
		c-1.367,2.005-2.91,3.44-4.644,4.321c-1.724,0.871-3.804,1.31-6.237,1.31c-1.15,0-2.325-0.158-3.547-0.485
		c-1.211-0.315-2.32-0.838-3.322-1.565c-1.004-0.728-1.838-1.669-2.5-2.824c-0.662-1.157-0.992-2.572-0.992-4.242
		c0-2.308,0.587-4.135,1.767-5.48c1.17-1.353,2.736-2.354,4.694-3.021c1.961-0.662,4.213-1.092,6.749-1.286
		c2.54-0.188,5.173-0.291,7.896-0.291V487.212z M1139.952,491.621c-1.79,0-3.595,0.075-5.411,0.223
		c-1.809,0.15-3.451,0.448-4.918,0.896c-1.469,0.446-2.68,1.1-3.617,1.948c-0.938,0.857-1.403,1.985-1.403,3.393
		c0,1.066,0.2,1.963,0.606,2.685c0.404,0.728,0.944,1.315,1.626,1.764c0.686,0.445,1.439,0.763,2.274,0.959
		c0.825,0.191,1.669,0.284,2.525,0.284c1.54,0,2.896-0.266,4.094-0.798c1.199-0.53,2.195-1.258,3.012-2.172
		c0.805-0.923,1.421-1.976,1.845-3.17c0.434-1.192,0.64-2.451,0.64-3.775v-2.236H1139.952z"/>
	<path fill="#FFFFFF" d="M1158.056,480.107c-0.046-1.282-0.111-2.433-0.2-3.458h4.167c0.084,0.811,0.149,1.705,0.19,2.693
		c0.043,0.975,0.066,1.786,0.066,2.424h0.12c0.854-1.743,2.14-3.165,3.837-4.251c1.711-1.091,3.626-1.631,5.762-1.631
		c0.555,0,1.054,0.022,1.501,0.064c0.451,0.047,0.905,0.127,1.379,0.252l-0.577,4.158c-0.256-0.084-0.686-0.168-1.282-0.252
		c-0.592-0.084-1.188-0.13-1.785-0.13c-1.157,0-2.261,0.214-3.328,0.643c-1.072,0.42-1.995,1.091-2.782,2.005
		c-0.789,0.919-1.433,2.088-1.922,3.514c-0.488,1.427-0.735,3.133-0.735,5.137v15.312h-4.345V483.24
		C1158.121,482.428,1158.099,481.384,1158.056,480.107z"/>
	<path fill="#FFFFFF" d="M1195.476,480.295h-8.445v17.471c0,1.107,0.106,2.021,0.321,2.749c0.214,0.722,0.527,1.286,0.933,1.691
		c0.4,0.405,0.886,0.687,1.435,0.834c0.556,0.15,1.146,0.225,1.79,0.225c0.598,0,1.227-0.089,1.884-0.262
		c0.662-0.167,1.295-0.4,1.897-0.698l0.186,3.775c-0.765,0.298-1.57,0.518-2.399,0.67c-0.83,0.15-1.729,0.224-2.723,0.224
		c-0.806,0-1.658-0.111-2.55-0.325c-0.9-0.204-1.729-0.615-2.497-1.212c-0.765-0.596-1.399-1.408-1.89-2.434
		c-0.484-1.017-0.735-2.363-0.735-4.027v-18.681h-6.204v-3.646h6.204v-8.441h4.349v8.441h8.445V480.295z"/>
	<path fill="#FFFFFF" d="M1231.101,490.727c0,0.298,0,0.619,0,0.955c0,0.346-0.017,0.703-0.06,1.09h-24.826
		c0.044,1.492,0.342,2.903,0.896,4.223c0.553,1.32,1.323,2.477,2.306,3.455c0.979,0.979,2.136,1.757,3.45,2.334
		c1.328,0.574,2.755,0.863,4.287,0.863c2.263,0,4.215-0.521,5.855-1.565c1.646-1.044,2.886-2.252,3.744-3.617l3.258,2.559
		c-1.78,2.261-3.763,3.882-5.911,4.862c-2.158,0.978-4.47,1.472-6.946,1.472c-2.217,0-4.272-0.391-6.17-1.185
		c-1.897-0.786-3.523-1.886-4.895-3.294c-1.36-1.408-2.442-3.072-3.23-4.992c-0.787-1.916-1.184-4.005-1.184-6.265
		c0-2.261,0.382-4.35,1.15-6.27c0.771-1.916,1.838-3.585,3.198-4.992c1.37-1.403,2.966-2.498,4.801-3.291
		c1.837-0.792,3.813-1.184,5.943-1.184c2.349,0,4.419,0.392,6.209,1.184c1.794,0.793,3.281,1.855,4.479,3.198
		c1.193,1.342,2.098,2.907,2.713,4.697C1230.794,486.754,1231.101,488.675,1231.101,490.727z M1226.682,489.318
		c-0.125-2.815-1.029-5.146-2.712-7.002c-1.688-1.855-4.088-2.787-7.201-2.787c-1.444,0-2.792,0.27-4.026,0.802
		c-1.235,0.531-2.326,1.259-3.259,2.172c-0.941,0.924-1.688,1.963-2.242,3.133c-0.556,1.175-0.872,2.4-0.96,3.683H1226.682z"/>
	<path fill="#FFFFFF" d="M1241.977,480.107c-0.042-1.282-0.107-2.433-0.195-3.458h4.162c0.084,0.811,0.149,1.705,0.191,2.693
		c0.042,0.975,0.064,1.786,0.064,2.424h0.122c0.862-1.743,2.139-3.165,3.841-4.251c1.705-1.091,3.621-1.631,5.756-1.631
		c0.555,0,1.059,0.022,1.507,0.064c0.45,0.047,0.903,0.127,1.375,0.252l-0.573,4.158c-0.258-0.084-0.687-0.168-1.283-0.252
		c-0.598-0.084-1.193-0.13-1.79-0.13c-1.146,0-2.261,0.214-3.329,0.643c-1.066,0.42-1.994,1.091-2.78,2.005
		c-0.789,0.919-1.427,2.088-1.917,3.514c-0.494,1.427-0.736,3.133-0.736,5.137v15.312h-4.349V483.24
		C1242.042,482.428,1242.018,481.384,1241.977,480.107z"/>
</g>
<rect fill="none" width="1585.582" height="726.252"/>
<path fill="#91CD96" d="M580.564,459.747c0,55.692-46.407,123.131-142.913,123.131c-79.213,0-131.795-55.683-137.375-113.846h27.855
	c3.57,25.712,18.878,50.788,43.079,67.421c7.346,5.043,15.517,9.321,24.443,12.574c12.595,4.625,26.667,7.244,41.998,7.244
	c78.569,0,115.076-52.588,115.076-94.668c0-39.938-26.825-64.157-61.789-78.384h-0.019c-8.492-3.468-17.47-6.33-26.653-8.698
	l13.457-23.399h0.018l40.474-70.09H382.108v-27.46H565.77l-61.546,106.611C548.901,378.568,580.564,409.583,580.564,459.747"/>
<path fill="#4C815F" d="M565.77,219.415h-29.431c-29.744-50.061-62.936-59.915-107.469-61.435
	c-60.753-2.079-109.063,42.935-109.063,94.287c0,21.213,5.92,50.63,50.891,69.116c5.421,2.229,11.43,4.307,18.067,6.181
	c2.49,0.699,5.081,1.389,7.762,2.042l59.397,14.226c3.506,0.858,6.973,1.771,10.385,2.741l-13.451,23.399h-0.019
	c-1.031-0.262-2.061-0.514-3.091-0.773l-42.562-9.752l-16.836-3.859c-7.038-1.613-13.583-3.421-19.652-5.388
	c-68.809-22.346-78.728-66.679-78.728-97.932c0-67.448,65.462-120.894,132.332-120.894
	C489.582,131.374,541.019,155.51,565.77,219.415"/>
</svg>
