<svg id="Layer_1" data-name="Layer 1" xmlns="http://www.w3.org/2000/svg" viewBox="0 0 176 176"><defs><style>.cls-1{fill:#54bd84;}.cls-2{opacity:0.7;}.cls-3{fill:#35835d;}.cls-4{opacity:0.71;}.cls-5{fill:#231f20;}.cls-6{fill:#fff;}.cls-7{fill:#4d8260;}.cls-8{fill:#91cd96;}</style></defs><rect class="cls-1" x="28.13" y="28.15" width="119.78" height="119.78" rx="8"/><g class="cls-2"><path class="cls-3" d="M102,92.16l-.25-1.36h-.09a4.94,4.94,0,0,1-3.92,1.67,4.19,4.19,0,0,1-4.43-4.19c0-3.57,3.2-5.27,8-5.26v-.18c0-.72-.4-1.76-2.51-1.76a7.85,7.85,0,0,0-3.78,1l-.79-2.72a11.08,11.08,0,0,1,5.33-1.23c4.56,0,6,2.69,6,5.91v4.78a19.66,19.66,0,0,0,.22,3.32Zm-.52-6.48c-2.24,0-4,.53-4,2.16a1.54,1.54,0,0,0,1.69,1.64,2.33,2.33,0,0,0,2.2-1.57,2.56,2.56,0,0,0,.08-.73Z"/><path class="cls-3" d="M109,83.06c0-1.8,0-3.32-.11-4.6h3.7l.2,1.91h.06a5.29,5.29,0,0,1,4.56-2.22c3,0,5.7,2.6,5.7,7,0,5-3.19,7.34-6.24,7.34a4.25,4.25,0,0,1-3.55-1.56h-.06V97.7H109Zm4.26,3.23a4.13,4.13,0,0,0,.09.89,2.59,2.59,0,0,0,2.49,2c1.84,0,2.94-1.55,2.94-3.87s-1-3.85-2.87-3.85a2.67,2.67,0,0,0-2.55,2.16,3.17,3.17,0,0,0-.1.76Z"/><path class="cls-3" d="M125.71,83.06c0-1.8-.06-3.32-.12-4.6h3.71l.2,1.91h.05a5.32,5.32,0,0,1,4.57-2.22c3,0,5.69,2.6,5.69,7,0,5-3.18,7.34-6.23,7.34A4.25,4.25,0,0,1,130,90.91H130V97.7h-4.26ZM130,86.29a4.15,4.15,0,0,0,.08.89,2.59,2.59,0,0,0,2.49,2c1.84,0,2.94-1.55,2.94-3.87s-1-3.85-2.87-3.85a2.68,2.68,0,0,0-2.55,2.16,3.16,3.16,0,0,0-.09.76Z"/></g><g class="cls-4"><path class="cls-5" d="M65.39,37.88a6.08,6.08,0,0,0,1.59.2A31.74,31.74,0,0,1,80.59,42.3,26.19,26.19,0,0,1,90.76,53.92c.3.64.56,1.31.85,2,.13.28,0,.35-.23.35h-5.5c-.33,0-.42-.2-.55-.41a31.92,31.92,0,0,0-4.58-6,20.42,20.42,0,0,0-11.16-5.78,35.66,35.66,0,0,0-8.75-.59A22.21,22.21,0,0,0,46.6,49.57a18.39,18.39,0,0,0-5.84,10.65c-.66,4.07-.19,8,2.32,11.41a17.15,17.15,0,0,0,6.67,5.19,43.81,43.81,0,0,0,8.87,2.82c4,1,8,1.86,11.92,2.88.47.11.45.25.24.6-.81,1.36-1.59,2.73-2.37,4.1-.11.19-.19.35-.49.28-4.83-1.13-9.69-2.19-14.51-3.39A30.57,30.57,0,0,1,42.18,79a18.15,18.15,0,0,1-7.31-12.68,1.94,1.94,0,0,0-.18-1v-4.1c0-.06.08-.11.08-.17a20.37,20.37,0,0,1,.48-3A24.44,24.44,0,0,1,42.79,45.6a29.15,29.15,0,0,1,15.55-7.44,8.74,8.74,0,0,0,1.75-.28Z"/><path class="cls-5" d="M81.76,69.05h-.64q-13.52,0-27,0c-.52,0-.62-.16-.61-.64,0-1.53,0-3.07,0-4.6,0-.5.19-.55.61-.55H91.15c.6,0,.6,0,.32.5L79.23,85c-.3.53-.31.53.27.78A30.79,30.79,0,0,1,88,90.93,19.12,19.12,0,0,1,94.58,103a23.5,23.5,0,0,1-5.27,18.31,27.36,27.36,0,0,1-15.55,9.57,37.12,37.12,0,0,1-6.71.93,31,31,0,0,1-14-2.23c-7.75-3.26-13.13-8.78-15.76-16.85a22.24,22.24,0,0,1-.89-4.29c0-.25,0-.32.29-.32h5.19c.26,0,.34.1.39.34a20.7,20.7,0,0,0,10.48,14.69,23,23,0,0,0,10.38,3.07,27.66,27.66,0,0,0,15.26-3,19.36,19.36,0,0,0,10-12.61,15.53,15.53,0,0,0-6.28-16.94,32.91,32.91,0,0,0-10.42-4.79c-.38-.11-1-.14-1.09-.37s.31-.71.51-1.07q5.2-9,10.43-18.06Z"/></g><path class="cls-6" d="M80.39,71a1.32,1.32,0,0,1-.12.26q-5.34,9.27-10.71,18.53c-.21.36-.16.47.23.56a38.08,38.08,0,0,1,4.32,1.38,24.91,24.91,0,0,1,8.47,5,14.9,14.9,0,0,1,4.47,15.15,19,19,0,0,1-10,12.6,27.45,27.45,0,0,1-16.2,2.89A22.24,22.24,0,0,1,51.06,124a20.44,20.44,0,0,1-9.66-14.08c0-.26-.13-.36-.4-.36H35.91c-.26,0-.34.07-.3.35a23.59,23.59,0,0,0,2.26,7.76A26.54,26.54,0,0,0,50.73,130.2,30.89,30.89,0,0,0,65.84,133a36.53,36.53,0,0,0,7.06-1A26.84,26.84,0,0,0,88.3,122,23.07,23.07,0,0,0,93,103.8a18.81,18.81,0,0,0-6.44-11.24,30,30,0,0,0-8.38-5.12c-.44-.18-.51-.32-.26-.75Q84,76.22,90,65.73c.27-.47.27-.47-.25-.47H52.91c-.38,0-.47.11-.47.47,0,1.55,0,3.1,0,4.64,0,.47.1.61.59.61q13.38,0,26.76,0Z"/><path class="cls-7" d="M64.22,40.15a6,6,0,0,0,1.58.2,31.44,31.44,0,0,1,13.44,4.16A25.92,25.92,0,0,1,89.29,56c.3.64.55,1.3.84,1.95.13.26.06.34-.22.34H84.43c-.31,0-.38-.21-.5-.4A32.34,32.34,0,0,0,79.41,52a20.29,20.29,0,0,0-11-5.72,35.78,35.78,0,0,0-8.64-.58,22,22,0,0,0-14.08,6,18.13,18.13,0,0,0-5.78,10.57c-.68,4.25-.12,8.27,2.68,11.74a18.16,18.16,0,0,0,7.1,5,51.07,51.07,0,0,0,8.72,2.59c3.64.87,7.28,1.77,10.92,2.64.41.1.48.2.26.58-.8,1.34-1.57,2.7-2.35,4.06-.12.21-.2.35-.52.28-4.62-1.09-9.25-2.11-13.87-3.23a31.26,31.26,0,0,1-11.16-4.9A18.07,18.07,0,0,1,34,67.33c-.62-7.27,1.86-13.4,6.89-18.55a28.67,28.67,0,0,1,15.38-8.19c.82-.16,1.66-.23,2.49-.34.09,0,.2,0,.25-.1Z"/><path class="cls-8" d="M80.39,71h-.6Q66.41,71,53,71c-.49,0-.6-.14-.59-.61,0-1.54,0-3.09,0-4.64,0-.36.09-.47.47-.47H89.75c.52,0,.52,0,.25.47q-6,10.49-12.12,21c-.25.43-.18.57.26.75a30,30,0,0,1,8.38,5.12A18.81,18.81,0,0,1,93,103.8,23.07,23.07,0,0,1,88.3,122,26.84,26.84,0,0,1,72.9,132a36.53,36.53,0,0,1-7.06,1,30.89,30.89,0,0,1-15.11-2.77,26.54,26.54,0,0,1-12.86-12.53,23.59,23.59,0,0,1-2.26-7.76c0-.28,0-.35.3-.35H41c.27,0,.36.1.4.36A20.44,20.44,0,0,0,51.06,124a22.24,22.24,0,0,0,9.81,3.34,27.45,27.45,0,0,0,16.2-2.89,19,19,0,0,0,10-12.6A14.9,14.9,0,0,0,82.58,96.7a24.91,24.91,0,0,0-8.47-5,38.08,38.08,0,0,0-4.32-1.38c-.39-.09-.44-.2-.23-.56q5.37-9.26,10.71-18.53A1.32,1.32,0,0,0,80.39,71Z"/></svg>